<?xml version="1.0" standalone="no"?>
<!DOCTYPE svg PUBLIC "-//W3C//DTD SVG 1.1//EN" "http://www.w3.org/Graphics/SVG/1.1/DTD/svg11.dtd" >
<svg xmlns="http://www.w3.org/2000/svg">
<metadata>Generated by IcoMoon</metadata>
<defs>
<font id="icon" horiz-adv-x="1024">
<font-face units-per-em="1024" ascent="960" descent="-64" />
<missing-glyph horiz-adv-x="1024" />
<glyph unicode="&#x20;" horiz-adv-x="512" d="" />
<glyph unicode="&#xe900;" glyph-name="ic-360" horiz-adv-x="964" d="M818.604 658.124c10.921-0.446 21.715 2.46 30.937 8.329 9.114 5.469 16.366 13.554 20.823 23.202 4.554 10.921 6.782 22.673 6.542 34.505 0.723 17.125-5.012 33.897-16.059 46.998-5.198 6.059-11.698 10.865-19.010 14.058s-15.258 4.692-23.233 4.385c-10.674-0.004-21.155-2.88-30.341-8.329-9.114-5.469-16.366-13.554-20.823-23.202-4.807-10.442-7.24-21.82-7.138-33.316-0.753-17.31 4.975-34.281 16.065-47.593 5.192-6.101 11.674-10.973 18.98-14.266s15.246-4.922 23.257-4.772zM799.569 752.12c2.217 2.956 5.090 5.354 8.391 7.007 3.307 1.652 6.951 2.512 10.644 2.512 3.698 0 7.337-0.86 10.644-2.512s6.18-4.051 8.397-7.007c5.536-8.015 8.252-17.639 7.734-27.366 0.783-10.311-1.94-20.585-7.734-29.151-2.072-3.108-4.915-5.622-8.252-7.291-3.343-1.67-7.060-2.437-10.788-2.227-3.656-0.166-7.301 0.56-10.619 2.114-3.313 1.554-6.204 3.891-8.415 6.81-5.536 8.015-8.258 17.639-7.734 27.366-0.831 10.501 1.891 20.978 7.734 29.745zM598.486 411.234h118.983c6.782 0 13.294 2.695 18.089 7.492 4.801 4.798 7.493 11.304 7.493 18.089v245.105c0 6.785-2.693 13.292-7.493 18.089-4.795 4.798-11.306 7.493-18.089 7.493h-118.983c-6.84 0.002-13.41-2.674-18.302-7.455s-7.719-11.287-7.875-18.126v-245.105c0.155-6.839 2.982-13.345 7.875-18.126s11.462-7.457 18.302-7.455zM624.068 655.744h70.198v-192.753h-70.198v192.753zM963.765 417.778c0-32.126-19.631-78.526-111.845-118.986-80.384-31.298-165.009-50.351-251.054-56.513h-82.098c-4.168 0.181-8.232 1.355-11.854 3.421-3.622 2.072-6.696 4.975-8.968 8.475-3.439 3.686-5.74 8.288-6.628 13.246-0.887 4.963-0.323 10.077 1.624 14.728s5.196 8.638 9.355 11.481c4.159 2.849 9.052 4.433 14.091 4.572h81.504c80.406 4.668 159.64 21.522 234.994 49.971 50.568 22.012 80.312 48.783 80.312 71.39s-55.922 67.82-142.185 92.807c-5.048 1.275-9.583 4.057-13.005 7.978-3.427 3.921-5.572 8.793-6.15 13.964-0.584 5.172 0.428 10.398 2.891 14.982 2.47 4.583 6.27 8.305 10.909 10.669 3.102 1.326 6.445 2.009 9.818 2.009s6.71-0.683 9.812-2.009c114.821-30.936 178.477-82.098 178.477-140.4v-1.785zM440.833 290.467c3.948-4.644 6.063-10.565 5.949-16.661 0.301-3.542-0.124-7.114-1.249-10.487-1.125-3.379-2.927-6.487-5.295-9.144l-71.985-79.715c-2.505-2.693-5.547-4.825-8.929-6.258s-7.029-2.138-10.703-2.072c-6.386-0.163-12.58 2.187-17.253 6.542-4.689 4.879-7.309 11.378-7.309 18.149 0 6.764 2.62 13.264 7.309 18.143l31.531 35.695c-81.335 5.367-161.476 22.395-237.967 50.568-81.503 32.72-124.932 77.934-124.932 124.337 1 16.443 5.823 32.426 14.086 46.679s19.735 26.38 33.508 35.42c33.408 23.92 70.618 42.023 110.059 53.543 3.521 0.962 7.21 1.141 10.807 0.524s7.016-2.014 10.015-4.094c5.996-3.361 10.469-8.899 12.493-15.468 1.108-3.24 1.554-6.669 1.313-10.085s-1.167-6.748-2.72-9.799c-1.553-3.052-3.704-5.76-6.324-7.965s-5.655-3.862-8.926-4.872c-74.96-24.392-118.983-59.491-118.983-86.263s34.505-52.947 92.212-76.148c72.4-26.184 148.079-42.201 224.879-47.592l-35.1 41.641c-3.936 3.692-6.636 8.511-7.728 13.794s-0.526 10.777 1.623 15.727c2.149 4.95 5.775 9.114 10.383 11.923s9.97 4.126 15.355 3.771c6.029-0.408 11.719-2.937 16.062-7.139l67.821-82.692zM288.534 587.924v67.82h-75.554c-6.839 0.156-13.345 2.982-18.126 7.875s-7.457 11.462-7.455 18.302c0 6.785 2.695 13.292 7.493 18.089s11.304 7.493 18.089 7.493h101.136c6.841 0.002 13.41-2.674 18.302-7.455s7.719-11.287 7.874-18.126v-245.105c-0.155-6.839-2.982-13.345-7.874-18.126s-11.462-7.457-18.302-7.455h-101.136c-6.784 0-13.291 2.695-18.089 7.492s-7.493 11.304-7.493 18.089c-0.002 6.84 2.674 13.41 7.455 18.302s11.287 7.719 18.126 7.874h75.554v70.201h-75.554c-6.839 0.155-13.345 2.982-18.126 7.874s-7.457 11.462-7.455 18.302c0 6.785 2.695 13.292 7.493 18.089s11.304 7.493 18.089 7.493l75.554 2.974zM434.336 410.809l80.267 0.465c6.784 0 13.701 3.336 18.498 8.134s7.083 13.597 7.083 20.382v119.578c0 6.785-2.695 13.292-7.493 18.089s-11.304 7.493-18.089 7.493h-93.402v70.795h75.554c6.839 0.156 13.345 2.982 18.126 7.875s7.457 11.462 7.455 18.302c0 6.785-2.695 13.292-7.493 18.089s-11.304 7.493-18.089 7.493h-101.136c-6.84 0.002-13.41-2.674-18.302-7.455s-7.719-11.287-7.874-18.126v-245.105c0.155-6.839 2.982-13.345 7.874-18.126s11.462-7.457 18.302-7.455l38.716-0.425zM421.201 536.166h70.2v-73.175h-70.2v73.175z" />
<glyph unicode="&#xe901;" glyph-name="ic-a-watch" d="M748.25 779.94l-30.15 90.524c-5.069 15.26-19.354 25.536-35.424 25.536h-341.351c-16.072 0-30.352-10.276-35.42-25.536l-30.156-90.524c-49.168-12.824-83.524-57.12-83.748-107.94v-448c0.196-50.79 34.58-95.117 83.748-107.942l30.156-90.522c5.068-15.258 19.348-25.536 35.42-25.536h341.351c16.070 0 30.355 10.278 35.424 25.536l30.15 90.522c49.171 12.826 83.526 57.12 83.75 107.942v448c-0.198 50.792-34.579 95.116-83.75 107.94zM757.325 224c0-20.608-16.717-37.325-37.325-37.325h-416.028c-20.608 0-37.324 16.717-37.324 37.325v448c0 20.608 16.716 37.324 37.324 37.324h416.028c20.608 0 37.325-16.716 37.325-37.324v-448z" />
<glyph unicode="&#xe902;" glyph-name="ic-adapter" horiz-adv-x="964" d="M689.453 557.661v57.933c0.030 9.47-2.849 18.704-8.216 26.367s-12.951 13.36-21.643 16.265v162.567c0.404 20.46-7.054 40.247-20.733 55.010-13.673 14.762-32.449 23.291-52.192 23.709s-38.839-7.309-53.085-21.481c-14.246-14.172-22.476-33.628-22.879-54.088 0-1.060 0-2.091 0-2.865v-160.447h-57.536v160.447c0 20.471-7.847 40.103-21.816 54.579s-32.914 22.608-52.669 22.608c-19.754 0-38.7-8.132-52.669-22.608s-21.816-34.108-21.816-54.579v-162.74c-8.707-2.926-16.289-8.65-21.648-16.34s-8.215-16.95-8.156-26.436v-57.904c-9.409-1.922-17.885-7.163-23.985-14.831s-9.446-17.291-9.47-27.229v-416.616c0.007-11.324 4.344-22.179 12.061-30.19s18.183-12.529 29.108-12.559h399.465c10.921 0.060 21.378 4.584 29.106 12.589 7.722 7.999 12.083 18.842 12.143 30.16v416.616c-0.018 9.926-3.355 19.539-9.439 27.205s-14.541 12.916-23.931 14.855zM367.045 832.999c1.522 1.585 3.331 2.843 5.324 3.698s4.131 1.293 6.288 1.287c2.159 0.007 4.298-0.428 6.294-1.281s3.809-2.106 5.336-3.688c1.526-1.582 2.736-3.461 3.559-5.529s1.242-4.285 1.235-6.522v-160.447h-32.846v160.447c-0.006 2.235 0.416 4.45 1.242 6.516s2.038 3.941 3.568 5.517zM568.878 821.252c-0.126 2.263 0.187 4.528 0.919 6.664s1.869 4.098 3.344 5.771c1.475 1.673 3.258 3.024 5.245 3.973s4.136 1.475 6.322 1.55c2.185 0.075 4.364-0.305 6.406-1.116s3.907-2.037 5.485-3.607c1.578-1.569 2.837-3.449 3.703-5.53s1.322-4.321 1.34-6.587c0.028-0.372 0.028-0.745 0-1.117v-160.733h-32.874v160.733h0.111zM332.457 558.434v41.917h298.935v-41.917h-298.935zM664.763 498.267v-381.862h-365.76v381.862h365.76z" />
<glyph unicode="&#xe903;" glyph-name="ic-air-purifier" d="M745.402 896h-468.881c-4.548-0.004-8.909-1.732-12.125-4.805s-5.025-7.24-5.029-11.585v-868.685c0-2.893 1.204-5.677 3.35-7.725 2.144-2.048 5.052-3.2 8.085-3.2h480.315c3.034 0 5.946 1.152 8.090 3.2s3.347 4.832 3.347 7.725v868.685c-0.006 4.346-1.811 8.512-5.030 11.585-3.213 3.073-7.571 4.801-12.122 4.805zM327.983 43.706c-4.525 0-8.947 1.286-12.708 3.686s-6.692 5.811-8.424 9.805c-1.731 3.994-2.184 8.39-1.301 12.627 0.882 4.243 3.060 8.134 6.259 11.187 3.199 3.059 7.274 5.139 11.711 5.984s9.036 0.41 13.215-1.242c4.18-1.658 7.753-4.454 10.266-8.051 2.513-3.59 3.855-7.821 3.855-12.141 0-5.798-2.411-11.354-6.7-15.45-4.29-4.102-10.107-6.406-16.173-6.406zM327.983 131.123c-4.525 0-8.947 1.28-12.708 3.68s-6.692 5.818-8.424 9.811c-1.731 3.994-2.184 8.384-1.301 12.627 0.882 4.237 3.060 8.128 6.259 11.187 3.199 3.053 7.274 5.139 11.711 5.978 4.436 0.845 9.036 0.416 13.215-1.242 4.18-1.651 7.753-4.454 10.266-8.045 2.513-3.597 3.855-7.821 3.855-12.147 0-5.792-2.411-11.354-6.7-15.45-4.29-4.096-10.107-6.4-16.173-6.4zM327.983 218.534c-4.525 0-8.947 1.286-12.708 3.686s-6.692 5.811-8.424 9.805c-1.731 3.994-2.184 8.39-1.301 12.627 0.882 4.243 3.060 8.134 6.259 11.187 3.199 3.059 7.274 5.139 11.711 5.984s9.036 0.41 13.215-1.242c4.18-1.658 7.753-4.454 10.266-8.051 2.513-3.59 3.855-7.821 3.855-12.141 0-5.798-2.411-11.354-6.7-15.45-4.29-4.102-10.107-6.406-16.173-6.406zM327.983 305.952c-4.525 0-8.947 1.28-12.708 3.68-3.761 2.406-6.692 5.818-8.424 9.811-1.731 3.992-2.184 8.387-1.301 12.625s3.060 8.133 6.259 11.189c3.199 3.056 7.274 5.138 11.711 5.981s9.036 0.41 13.215-1.244c4.18-1.654 7.753-4.454 10.266-8.048s3.855-7.82 3.855-12.143c0-5.796-2.411-11.356-6.7-15.452-4.29-4.096-10.107-6.4-16.173-6.4zM327.983 393.366c-4.525 0-8.947 1.281-12.708 3.682-3.761 2.403-6.692 5.814-8.424 9.809-1.731 3.992-2.184 8.387-1.301 12.627s3.060 8.132 6.259 11.188c3.199 3.057 7.274 5.138 11.711 5.981 4.436 0.844 9.036 0.41 13.215-1.243 4.18-1.655 7.753-4.455 10.266-8.049s3.855-7.819 3.855-12.142c0-5.796-2.411-11.354-6.7-15.452-4.29-4.099-10.107-6.401-16.173-6.401zM419.472 43.706c-4.524 0-8.947 1.286-12.708 3.686s-6.692 5.811-8.424 9.805c-1.731 3.994-2.183 8.39-1.301 12.627 0.882 4.243 3.061 8.134 6.259 11.187 3.199 3.059 7.274 5.139 11.711 5.984s9.036 0.41 13.215-1.242c4.18-1.658 7.753-4.454 10.266-8.051 2.513-3.59 3.855-7.821 3.855-12.141 0-5.798-2.41-11.354-6.7-15.45-4.29-4.102-10.107-6.406-16.173-6.406zM419.472 131.123c-4.524 0-8.947 1.28-12.708 3.68s-6.692 5.818-8.424 9.811c-1.731 3.994-2.183 8.384-1.301 12.627 0.882 4.237 3.061 8.128 6.259 11.187 3.199 3.053 7.274 5.139 11.711 5.978 4.436 0.845 9.036 0.416 13.215-1.242 4.18-1.651 7.753-4.454 10.266-8.045 2.513-3.597 3.855-7.821 3.855-12.147 0-5.792-2.41-11.354-6.7-15.45s-10.107-6.4-16.173-6.4zM419.472 218.534c-4.524 0-8.947 1.286-12.708 3.686s-6.692 5.811-8.424 9.805c-1.731 3.994-2.183 8.39-1.301 12.627 0.882 4.243 3.061 8.134 6.259 11.187 3.199 3.059 7.274 5.139 11.711 5.984s9.036 0.41 13.215-1.242c4.18-1.658 7.753-4.454 10.266-8.051 2.513-3.59 3.855-7.821 3.855-12.141 0-5.798-2.41-11.354-6.7-15.45-4.29-4.102-10.107-6.406-16.173-6.406zM419.472 305.952c-4.524 0-8.947 1.28-12.708 3.68-3.761 2.406-6.692 5.818-8.424 9.811-1.731 3.992-2.183 8.387-1.301 12.625s3.061 8.133 6.259 11.189c3.199 3.056 7.274 5.138 11.711 5.981s9.036 0.41 13.215-1.244c4.18-1.654 7.753-4.454 10.266-8.048s3.855-7.82 3.855-12.143c0-5.796-2.41-11.356-6.7-15.452s-10.107-6.4-16.173-6.4zM419.472 393.366c-4.524 0-8.947 1.281-12.708 3.682-3.761 2.403-6.692 5.814-8.424 9.809-1.731 3.992-2.183 8.387-1.301 12.627s3.061 8.132 6.259 11.188c3.199 3.057 7.274 5.138 11.711 5.981 4.436 0.844 9.036 0.41 13.215-1.243 4.18-1.655 7.753-4.455 10.266-8.049s3.855-7.819 3.855-12.142c0-5.796-2.41-11.354-6.7-15.452-4.29-4.099-10.107-6.401-16.173-6.401zM510.961 43.706c-4.524 0-8.946 1.286-12.707 3.686s-6.693 5.811-8.425 9.805c-1.731 3.994-2.183 8.39-1.301 12.627 0.882 4.243 3.061 8.134 6.26 11.187 3.198 3.059 7.275 5.139 11.71 5.984 4.438 0.845 9.036 0.41 13.215-1.242 4.18-1.658 7.753-4.454 10.266-8.051 2.513-3.59 3.855-7.821 3.855-12.141 0-5.798-2.41-11.354-6.699-15.45-4.291-4.102-10.108-6.406-16.173-6.406zM510.961 131.123c-4.524 0-8.946 1.28-12.707 3.68s-6.693 5.818-8.425 9.811c-1.731 3.994-2.183 8.384-1.301 12.627 0.882 4.237 3.061 8.128 6.26 11.187 3.198 3.053 7.275 5.139 11.71 5.978 4.438 0.845 9.036 0.416 13.215-1.242 4.18-1.651 7.753-4.454 10.266-8.045 2.513-3.597 3.855-7.821 3.855-12.147 0-5.792-2.41-11.354-6.699-15.45-4.291-4.096-10.108-6.4-16.173-6.4zM510.961 218.534c-4.524 0-8.946 1.286-12.707 3.686s-6.693 5.811-8.425 9.805c-1.731 3.994-2.183 8.39-1.301 12.627 0.882 4.243 3.061 8.134 6.26 11.187 3.198 3.059 7.275 5.139 11.71 5.984 4.438 0.845 9.036 0.41 13.215-1.242 4.18-1.658 7.753-4.454 10.266-8.051 2.513-3.59 3.855-7.821 3.855-12.141 0-5.798-2.41-11.354-6.699-15.45-4.291-4.102-10.108-6.406-16.173-6.406zM510.961 305.952c-4.524 0-8.946 1.28-12.707 3.68-3.761 2.406-6.693 5.818-8.425 9.811-1.731 3.992-2.183 8.387-1.301 12.625s3.061 8.133 6.26 11.189c3.198 3.056 7.275 5.138 11.71 5.981 4.438 0.843 9.036 0.41 13.215-1.244s7.753-4.454 10.266-8.048 3.855-7.82 3.855-12.143c0-5.796-2.41-11.356-6.699-15.452-4.291-4.096-10.108-6.4-16.173-6.4zM510.961 393.366c-4.524 0-8.946 1.281-12.707 3.682-3.761 2.403-6.693 5.814-8.425 9.809-1.731 3.992-2.183 8.387-1.301 12.627s3.061 8.132 6.26 11.188c3.198 3.057 7.275 5.138 11.71 5.981 4.438 0.844 9.036 0.41 13.215-1.243 4.18-1.655 7.753-4.455 10.266-8.049s3.855-7.819 3.855-12.142c0-5.796-2.41-11.354-6.699-15.452-4.291-4.099-10.108-6.401-16.173-6.401zM510.961 677.463c-18.095 0-35.783 5.126-50.828 14.732s-26.772 23.258-33.697 39.231c-6.925 15.972-8.737 33.549-5.206 50.506 3.53 16.957 12.243 32.533 25.038 44.758s29.097 20.551 46.844 23.924c17.747 3.373 36.141 1.642 52.859-4.975s31.006-17.82 41.059-32.195c10.053-14.376 15.419-31.276 15.419-48.565-0.028-23.176-9.676-45.395-26.828-61.782-17.151-16.388-40.406-25.606-64.661-25.633zM602.45 43.706c-4.524 0-8.945 1.286-12.707 3.686s-6.694 5.811-8.426 9.805c-1.731 3.994-2.183 8.39-1.301 12.627 0.882 4.243 3.061 8.134 6.26 11.187 3.199 3.059 7.275 5.139 11.711 5.984s9.035 0.41 13.214-1.242c4.18-1.658 7.752-4.454 10.266-8.051 2.513-3.59 3.855-7.821 3.855-12.141 0-5.798-2.41-11.354-6.699-15.45-4.291-4.102-10.108-6.406-16.173-6.406zM602.45 131.123c-4.524 0-8.945 1.28-12.707 3.68s-6.694 5.818-8.426 9.811c-1.731 3.994-2.183 8.384-1.301 12.627 0.882 4.237 3.061 8.128 6.26 11.187 3.199 3.053 7.275 5.139 11.711 5.978 4.437 0.845 9.035 0.416 13.214-1.242 4.18-1.651 7.752-4.454 10.266-8.045 2.513-3.597 3.855-7.821 3.855-12.147 0-5.792-2.41-11.354-6.699-15.45-4.291-4.096-10.108-6.4-16.173-6.4zM602.45 218.534c-4.524 0-8.945 1.286-12.707 3.686s-6.694 5.811-8.426 9.805c-1.731 3.994-2.183 8.39-1.301 12.627 0.882 4.243 3.061 8.134 6.26 11.187 3.199 3.059 7.275 5.139 11.711 5.984s9.035 0.41 13.214-1.242c4.18-1.658 7.752-4.454 10.266-8.051 2.513-3.59 3.855-7.821 3.855-12.141 0-5.798-2.41-11.354-6.699-15.45-4.291-4.102-10.108-6.406-16.173-6.406zM602.45 305.952c-4.524 0-8.945 1.28-12.707 3.68-3.761 2.406-6.694 5.818-8.426 9.811-1.731 3.992-2.183 8.387-1.301 12.625s3.061 8.133 6.26 11.189c3.199 3.056 7.275 5.138 11.711 5.981s9.035 0.41 13.214-1.244c4.18-1.654 7.752-4.454 10.266-8.048s3.855-7.82 3.855-12.143c0-5.796-2.41-11.356-6.699-15.452-4.291-4.096-10.108-6.4-16.173-6.4zM602.45 393.366c-4.524 0-8.945 1.281-12.707 3.682-3.761 2.403-6.694 5.814-8.426 9.809-1.731 3.992-2.183 8.387-1.301 12.627s3.061 8.132 6.26 11.188c3.199 3.057 7.275 5.138 11.711 5.981 4.437 0.844 9.035 0.41 13.214-1.243 4.18-1.655 7.752-4.455 10.266-8.049s3.855-7.819 3.855-12.142c0-5.796-2.41-11.354-6.699-15.452-4.291-4.099-10.108-6.401-16.173-6.401zM693.939 43.706c-4.525 0-8.947 1.286-12.71 3.686-3.757 2.4-6.688 5.811-8.422 9.805-1.728 3.994-2.182 8.39-1.299 12.627 0.883 4.243 3.059 8.134 6.259 11.187 3.2 3.059 7.277 5.139 11.712 5.984s9.030 0.41 13.21-1.242c4.186-1.658 7.757-4.454 10.266-8.051 2.515-3.59 3.859-7.821 3.859-12.141 0-5.798-2.413-11.354-6.701-15.45-4.288-4.102-10.106-6.406-16.173-6.406zM693.939 131.123c-4.525 0-8.947 1.28-12.71 3.68-3.757 2.4-6.688 5.818-8.422 9.811-1.728 3.994-2.182 8.384-1.299 12.627 0.883 4.237 3.059 8.128 6.259 11.187 3.2 3.053 7.277 5.139 11.712 5.978 4.435 0.845 9.030 0.416 13.21-1.242 4.186-1.651 7.757-4.454 10.266-8.045 2.515-3.597 3.859-7.821 3.859-12.147 0-5.792-2.413-11.354-6.701-15.45s-10.106-6.4-16.173-6.4zM693.939 218.534c-4.525 0-8.947 1.286-12.71 3.686-3.757 2.4-6.688 5.811-8.422 9.805-1.728 3.994-2.182 8.39-1.299 12.627 0.883 4.243 3.059 8.134 6.259 11.187 3.2 3.059 7.277 5.139 11.712 5.984s9.030 0.41 13.21-1.242c4.186-1.658 7.757-4.454 10.266-8.051 2.515-3.59 3.859-7.821 3.859-12.141 0-5.798-2.413-11.354-6.701-15.45-4.288-4.102-10.106-6.406-16.173-6.406zM693.939 305.952c-4.525 0-8.947 1.28-12.71 3.68-3.757 2.406-6.688 5.818-8.422 9.811-1.728 3.992-2.182 8.387-1.299 12.625s3.059 8.133 6.259 11.189c3.2 3.056 7.277 5.138 11.712 5.981s9.030 0.41 13.21-1.244c4.186-1.654 7.757-4.454 10.266-8.048 2.515-3.594 3.859-7.82 3.859-12.143 0-5.796-2.413-11.356-6.701-15.452s-10.106-6.4-16.173-6.4zM693.939 393.366c-4.525 0-8.947 1.281-12.71 3.682-3.757 2.403-6.688 5.814-8.422 9.809-1.728 3.992-2.182 8.387-1.299 12.627s3.059 8.132 6.259 11.188c3.2 3.057 7.277 5.138 11.712 5.981 4.435 0.844 9.030 0.41 13.21-1.243 4.186-1.655 7.757-4.455 10.266-8.049 2.515-3.594 3.859-7.819 3.859-12.142 0-5.796-2.413-11.354-6.701-15.452-4.288-4.099-10.106-6.401-16.173-6.401zM510.958 721.171c25.264 0 45.743 19.568 45.743 43.708s-20.479 43.708-45.743 43.708c-25.264 0-45.745-19.569-45.745-43.708s20.481-43.708 45.745-43.708zM173.637 647.185c13.452 16.081 32.224 26.818 52.951 30.896l-0.048 1.885h-0.858v29.368c-30.299-4.589-57.882-19.635-77.3-42.854-17.446-20.856-43.508-32.812-71.464-32.812h-12.918v-30.897h12.918c37.834 0 73.081 16.19 96.719 44.414zM852.205 604.36v-63.385l107.795 77.242-107.795 77.241v-58.998c-9.184 2.936-17.491 8.081-23.738 15.526l-24.282 28.981c-4.768 5.716-10.509 10.412-16.653 14.63v-15.186l-0.858-0.015-0.762-27.066 17.299-20.654c12.486-14.892 29.798-24.733 48.992-28.317zM852.205 451.083c-9.184 2.934-17.491 8.079-23.738 15.526l-24.282 28.996c-6.176 7.37-13.76 13.61-22.234 18.477l-1.133-40.058 22.381-26.709c12.48-14.924 29.811-24.749 48.986-28.333v-63.384l107.795 77.24-107.776 77.242v-58.997zM828.467 281.229c6.24-7.443 14.554-12.589 23.738-15.526v59l107.795-77.24-107.795-77.242v63.386c-19.174 3.584-36.506 13.408-48.992 28.326l-24.282 28.986c-0.762 0.909-1.606 1.728-2.445 2.56v0h-0.006c-0.243 0.243-0.493 0.486-0.736 0.73l1.050 37.276c10.573-5.113 19.923-12.341 27.392-21.269l24.282-28.986zM148.383 295.731c-17.446-20.87-43.509-32.826-71.464-32.826h-12.918v-30.899h12.918c37.834 0 73.097 16.192 96.719 44.416 15.748 18.848 38.545 30.323 63.412 32.397l-0.874 30.849c-34.39-2.348-66.031-17.951-87.793-43.937zM231.812 493.615c-22.798-3.167-43.525-14.305-58.173-31.808-23.638-28.224-58.885-44.413-96.719-44.413h-12.918v30.897h12.918c27.955 0 54.018 11.956 71.448 32.827 20.646 24.671 50.186 40.136 82.555 43.641l0.89-31.143z" />
<glyph unicode="&#xe904;" glyph-name="ic-android" d="M396.73 705.156c5.857 0 11.062 1.927 15.618 5.781s6.507 8.673 5.856 14.454c-0.65 5.782-2.603 10.931-5.856 15.448s-8.46 6.444-15.618 5.781c-7.158-0.662-12.038-2.589-14.641-5.781s-4.555-8.341-5.857-15.448c-1.301-7.107 0.651-11.924 5.857-14.454s10.086-4.456 14.641-5.781zM627.3 705.156c5.857 0 10.737 1.927 14.639 5.781 3.904 3.855 5.862 8.673 5.862 14.454s-1.958 10.931-5.862 15.448c-3.901 4.516-8.782 6.444-14.639 5.781s-11.062-2.589-15.617-5.781c-4.555-3.192-6.508-8.341-5.857-15.448s2.603-11.924 5.857-14.454c3.254-2.529 8.46-4.456 15.617-5.781zM184.705 605.817c14.987 0 28.012-5.471 39.074-16.412s16.268-23.798 15.618-38.573v-231.504c0-15.437-5.216-28.614-15.648-39.533-10.432-10.925-23.457-16.39-39.074-16.41-15.618-0.026-28.968 5.446-40.051 16.41-11.083 10.957-16.624 24.141-16.624 39.533v231.504c0 14.796 5.541 27.653 16.624 38.573s24.433 16.391 40.051 16.412h0.030zM762.125 595.187v-357.85c0-16.723-5.869-30.867-17.6-42.432-11.738-11.558-25.734-17.35-42.003-17.37h-41.030v-122.496c0-15.437-5.203-28.294-15.616-38.573-10.41-10.278-23.76-15.75-40.049-16.416-16.289-0.659-29.638 4.813-40.050 16.416s-15.953 24.461-16.624 38.573v122.496h-75.22v-122.496c0-15.437-5.206-28.294-15.618-38.573s-23.761-15.75-40.050-16.416c-15.638 0-28.662 5.472-39.074 16.416-10.412 10.938-15.953 23.795-16.625 38.573l-0.976 122.496h-40.050c-16.94 0-30.94 5.792-42.003 17.37-11.062 11.584-16.929 25.728-17.6 42.432v357.85h500.187zM636.086 813.168c38.436-19.292 69.373-46.623 92.817-81.995 23.45-35.372 35.174-74.276 35.174-116.714h-504.152c0 42.438 11.398 81.343 34.194 116.714s54.061 62.703 93.796 81.995l-38.098 70.402c-2.603 5.139-1.952 8.993 1.953 11.563 5.206 1.927 9.11 0.643 11.713-3.854l39.075-71.366c34.529 15.437 71.011 23.156 109.444 23.156s74.915-7.719 109.444-23.156l39.075 71.366c2.605 4.497 6.182 5.781 10.739 3.854 4.55-2.57 5.53-6.424 2.925-11.563l-38.097-70.402zM896 550.832v-231.504c0-15.437-5.542-28.614-16.627-39.533-11.078-10.925-24.429-16.39-40.045-16.41-14.989 0-28.013 5.466-39.078 16.41-11.059 10.938-16.602 24.122-16.621 39.533v231.504c0 15.437 5.542 28.296 16.621 38.573 11.085 10.278 24.109 15.749 39.078 16.412 15.635 0 28.986-5.471 40.045-16.412 11.066-10.94 16.608-23.798 16.627-38.573z" />
<glyph unicode="&#xe905;" glyph-name="ic-angle-double-down" d="M495.6 5.254c4.118-4.115 10.008-5.754 16.399-5.126 6.39-0.627 12.28 1.011 16.398 5.126l426.348 426.348c9.056 9.056 6.118 26.676-6.56 39.355l-45.914 45.914c-12.678 12.678-30.304 15.615-39.36 6.559l-350.913-350.918-350.916 350.918c-9.057 9.057-26.676 6.12-39.355-6.559l-45.914-45.914c-12.679-12.679-15.615-30.299-6.559-39.355l426.346-426.348zM511.999 539.827l350.913 350.916c9.056 9.056 26.682 6.119 39.36-6.559l45.914-45.914c12.678-12.679 15.616-30.298 6.56-39.355l-426.348-426.345c-4.118-4.118-10.008-5.757-16.398-5.126-6.391-0.631-12.281 1.007-16.399 5.126l-426.346 426.345c-9.056 9.056-6.119 26.676 6.559 39.355l45.914 45.914c12.678 12.679 30.298 15.615 39.355 6.559l350.916-350.916z" />
<glyph unicode="&#xe906;" glyph-name="ic-angle-double-left" d="M69.234 464.41c-4.119-4.118-5.757-10.008-5.126-16.399-0.63-6.39 1.008-12.28 5.126-16.398l426.345-426.345c9.057-9.056 26.676-6.118 39.355 6.56l45.914 45.914c12.679 12.678 15.615 30.298 6.559 39.354l-350.916 350.916 350.916 350.916c9.056 9.056 6.12 26.676-6.559 39.355l-45.914 45.914c-12.679 12.679-30.299 15.615-39.355 6.559l-426.345-426.346zM603.804 448.011l350.916-350.916c9.056-9.056 6.118-26.675-6.56-39.354l-45.914-45.914c-12.678-12.678-30.298-15.616-39.354-6.56l-426.347 426.345c-4.118 4.118-5.757 10.008-5.126 16.398-0.63 6.391 1.007 12.281 5.126 16.399l426.347 426.346c9.056 9.056 26.675 6.119 39.354-6.559l45.914-45.914c12.678-12.678 15.616-30.299 6.56-39.355l-350.916-350.916z" />
<glyph unicode="&#xe907;" glyph-name="ic-angle-double-right" d="M954.746 431.6c4.115 4.118 5.754 10.008 5.126 16.399 0.627 6.39-1.011 12.28-5.126 16.398l-426.348 426.346c-9.056 9.056-26.676 6.119-39.355-6.559l-45.914-45.914c-12.678-12.678-15.615-30.298-6.559-39.355l350.918-350.916-350.918-350.917c-9.057-9.056-6.12-26.675 6.559-39.354l45.914-45.914c12.679-12.678 30.299-15.616 39.355-6.56l426.348 426.346zM420.173 447.999l-350.916 350.916c-9.056 9.057-6.119 26.676 6.559 39.355l45.914 45.914c12.679 12.679 30.298 15.615 39.355 6.559l426.345-426.346c4.118-4.118 5.757-10.008 5.126-16.398 0.63-6.391-1.007-12.281-5.126-16.399l-426.345-426.346c-9.057-9.056-26.676-6.118-39.355 6.56l-45.914 45.914c-12.679 12.678-15.615 30.298-6.559 39.354l350.916 350.917z" />
<glyph unicode="&#xe908;" glyph-name="ic-angle-double-up" d="M528.4 890.743c-4.118 4.118-10.008 5.757-16.399 5.126-6.39 0.631-12.28-1.007-16.398-5.126l-426.346-426.346c-9.056-9.056-6.119-26.676 6.559-39.355l45.914-45.914c12.678-12.678 30.298-15.615 39.355-6.559l350.916 350.916 350.917-350.916c9.056-9.057 26.675-6.12 39.354 6.559l45.914 45.914c12.678 12.679 15.616 30.299 6.56 39.355l-426.346 426.346zM512.001 356.173l-350.916-350.918c-9.057-9.056-26.676-6.118-39.355 6.56l-45.914 45.914c-12.679 12.678-15.615 30.304-6.559 39.36l426.346 426.342c4.118 4.118 10.008 5.757 16.398 5.126 6.391 0.631 12.281-1.007 16.399-5.126l426.346-426.342c9.056-9.056 6.118-26.682-6.56-39.36l-45.914-45.914c-12.678-12.678-30.298-15.616-39.354-6.56l-350.917 350.918z" />
<glyph unicode="&#xe909;" glyph-name="ic-angle-down-thin" d="M119.697 693.818c-12.742 13.576-33.4 13.576-46.141 0s-12.741-35.587 0-49.164l415.27-442.472c6.377-6.797 14.736-10.189 23.094-10.182 8.412-0.051 16.837 3.347 23.255 10.182l415.27 442.472c12.742 13.576 12.742 35.587 0 49.164s-33.402 13.576-46.144 0l-392.301-418.003-392.303 418.003z" />
<glyph unicode="&#xe90a;" glyph-name="ic-angle-down" d="M495.6 197.094c4.118-3.994 10.008-5.581 16.399-4.966 6.39-0.614 12.28 0.973 16.398 4.966l426.348 412.884c9.056 8.771 6.118 25.834-6.56 38.113l-45.914 44.465c-12.678 12.278-30.304 15.123-39.36 6.352l-350.913-339.839-350.916 339.839c-9.057 8.771-26.676 5.926-39.355-6.352l-45.914-44.465c-12.679-12.279-15.615-29.343-6.559-38.113l426.346-412.884z" />
<glyph unicode="&#xe90b;" glyph-name="ic-angle-left-thin" d="M708.653 9.555c13.574-12.742 35.584-12.742 49.165 0 13.574 12.742 13.574 33.408 0 46.15l-417.948 392.293 417.948 392.298c13.574 12.743 13.574 33.403 0 46.146s-35.584 12.743-49.165 0l-442.467-415.314c-6.557-6.155-9.948-14.156-10.17-22.22-0.271-8.669 3.117-17.421 10.166-24.038l442.471-415.316z" />
<glyph unicode="&#xe90c;" glyph-name="ic-angle-left" d="M605.038 9.427c12.31-12.685 32.271-12.685 44.581 0l45.075 46.419c12.307 12.678 12.307 33.242 0 45.92l-336.184 346.252 336.145 346.217c12.314 12.68 12.314 33.238 0 45.918l-45.069 46.422c-12.313 12.68-32.273 12.68-44.584 0.001l-355.873-366.535c-0.938-0.767-1.843-1.597-2.711-2.491l-45.073-46.423c-5.341-5.501-8.365-12.486-9.071-19.667-1.028-9.473 1.984-19.323 9.037-26.588l45.073-46.423c0.966-0.995 1.98-1.912 3.033-2.751l355.621-366.272z" />
<glyph unicode="&#xe90d;" glyph-name="ic-angle-right-thin" d="M315.348 886.443c-13.576 12.743-35.587 12.743-49.163 0s-13.576-33.403 0-46.146l417.942-392.296-417.946-392.296c-13.576-12.742-13.576-33.408 0-46.15s35.587-12.742 49.164 0l442.472 415.316c6.554 6.155 9.946 14.156 10.17 22.22 0.269 8.669-3.117 17.421-10.17 24.038l-442.469 415.314z" />
<glyph unicode="&#xe90e;" glyph-name="ic-angle-right" d="M418.962 886.576c-12.31 12.68-32.271 12.68-44.582 0l-45.073-46.423c-12.311-12.68-12.311-33.238 0-45.917l336.184-346.253-336.149-346.216c-12.311-12.678-12.311-33.242 0-45.92l45.073-46.419c12.311-12.685 32.271-12.685 44.582 0l355.876 366.532c0.934 0.768 1.843 1.598 2.707 2.492l45.075 46.423c5.338 5.501 8.365 12.486 9.069 19.666 1.030 9.473-1.984 19.324-9.037 26.588l-45.069 46.422c-0.966 0.996-1.984 1.913-3.034 2.752l-355.624 366.274z" />
<glyph unicode="&#xe90f;" glyph-name="ic-angle-up-thin" d="M904.301 202.182c12.742-13.574 33.402-13.574 46.144 0s12.742 35.584 0 49.165l-415.27 442.47c-6.377 6.794-14.736 10.188-23.094 10.182-8.412 0.051-16.837-3.343-23.255-10.181l-415.269-442.471c-12.742-13.574-12.742-35.59 0-49.165s33.399-13.574 46.141 0l392.303 418.001 392.301-418.001z" />
<glyph unicode="&#xe910;" glyph-name="ic-angle-up" d="M528.4 698.909c-4.118 3.988-10.008 5.575-16.399 4.964-6.39 0.611-12.28-0.976-16.398-4.964l-426.346-412.886c-9.056-8.774-6.119-25.837 6.559-38.112l45.914-44.467c12.678-12.282 30.298-15.123 39.355-6.349l350.916 339.836 350.917-339.836c9.056-8.774 26.675-5.933 39.354 6.349l45.914 44.467c12.678 12.275 15.616 29.338 6.56 38.112l-426.346 412.886z" />
<glyph unicode="&#xe911;" glyph-name="ic-antutu" d="M340.59 274.675c7.136-1.837 14.397-3.686 21.739-5.555 37.499-9.549 77.125-19.648 113.048-31.098-6.848-21.171-26.77-40.704-49.805-36.966-33.546 2.131-56.39 33.978-75.543 60.678-3.24 4.518-6.375 8.89-9.438 12.941zM682.189 270.125c-44.205-9.344-92.57-21.6-136.15-32.806 6.226-19.917 21.79-42.33 43.58-41.088 35.375-2.598 60.18 30.739 80.82 58.483 4.064 5.459 7.962 10.701 11.75 15.411zM663.706 775.221c14.317-23.658 19.296-51.050 17.427-78.444 23.040 19.3 36.736 46.070 46.694 73.463 89.651-80.934 162.49-189.262 172.454-312.531 1.869-45.448 3.731-90.895-5.606-135.72-9.978-52.128-31.814-102.278-61.99-146.054l-3.034-4.966-0.563-0.928-0.813-1.35-0.749-0.954c-61.914-78.502-145.92-146.95-249.706-162.97-140.148-23.738-278.298 43.642-369.276 148.166l-0.598 0.691-0.906 1.261-1.075 1.485c-0.918 1.274-2.201 3.034-3.66 5.024l-1.581 2.144c-2.090 2.675-4.138 5.389-6.144 8.122l-1.391 1.76 0.067 0.058c-82.329 113.709-93.309 271.942-31.969 396.918 19.3 38.599 42.957 75.953 75.331 105.214 1.868-29.884 25.525-54.786 56.654-50.428 1.245 85.915 52.918 166.226 125.137 211.674-11.206-39.222-1.245-84.047 28.638-111.44 56.031 36.109 77.821 107.082 69.105 170.584 56.653-28.638 114.553-64.125 147.551-120.779zM805.184 204.602c-28.493 63.834-77.626 118.097-139.61 151.63 9.958 61.635 18.054 125.759 3.731 188.016-4.358 21.167-19.296 42.335-42.333 43.58-23.658 1.868-59.144 4.358-69.105-23.035-6.827-27.308 7.141-53.576 20.051-77.854 1.218-2.29 2.426-4.562 3.606-6.816 18.054-31.751 28.016-67.237 34.864-102.724-65.37 18.677-135.72 19.3-199.845-3.113 8.093 56.654 14.319 115.176 0.623 171.83-4.358 21.167-19.923 42.335-43.58 42.957l-2.022 0.11c-22.835 1.256-53.107 2.922-64.593-20.655-9.284-27.853 6.045-56.321 19.071-80.51l0.228-0.424c24.28-41.090 36.109-87.782 42.335-134.476-63.215-37.004-113.277-95.218-139.33-163.442 1.43-1.907 2.824-3.789 4.063-5.478 1.527-2.074 2.868-3.917 3.827-5.248l1.010-1.395c84.548-96.755 209.857-155.763 333.345-134.797l0.295 0.051c90.008 13.85 165.996 73.67 224.735 147.853l0.173 0.288 2.118 3.469c1.709 2.79 4 6.49 6.342 10.182z" />
<glyph unicode="&#xe912;" glyph-name="ic-apple-cable" d="M272.717 848.125c52.392 61.546 161.668 64.514 216.479 4.48 25.577-27.301 41.908-64.234 41.044-101.588-0.317-202.699 0.115-405.454-0.23-608.207 0.72-20.333-0.432-43.149 13.652-59.757 41.043-58.438 138.398-61.126 185.374-8.346 12.614 16.218 21.254 35.814 20.275 56.538 0.32 123.206 0.115 246.492 0.058 369.696-25.402 1.96-54.579-5.18-76.384 11.256-11.635 7.56-21.139 18.004-28.198 29.737-7.2 19.069-4.634 39.873-5.126 59.754 0.78 41.889-0.922 83.779 0.55 125.612 0.058 30.745 30.323 48.273 54.202 62.022l0.378 74.651c-0.058 22.653 8.435 29.513 31.194 30.269l85.773-0.42c19.846 0 27.533-7.392 27.533-20.077l0.806-84.955c22.758-12.32 46.72-26.516 53.6-50.822 4.211-27.357 1.21-55.106 1.958-82.631-0.864-33.545 1.965-67.258-1.35-100.635-6.714-23.605-27.277-42.114-50.061-51.13-19.066-3.696-38.682-1.96-57.978-2.492-0.544-123.512-0.173-247.077-0.115-370.591 1.357-49.818-35.078-94.982-79.725-115.648-69.069-34.016-165.068-7.866-200.35 61.126-10.542 16.269-12.299 35.93-12.5 54.771-0.058 206.816 0.49 413.603-0.23 620.418 1.642 40.63-19.989 84.059-60.37 99.096-47.928 17.809-114.288 10.5-142.774-35.925-16.936-23.773-15.294-53.986-15.899-81.567 0.432-112.788-0.49-225.576 0.432-338.364 22.61-0.728 46.17 2.324 67.916-5.18 21.631-12.796 42.397-34.273 41.302-60.706 0.115-52.14 0.432-104.274-0.115-156.415-1.267-37.242-38.624-60.339-72.495-67.315-0.865-34.554-0.115-69.158-0.663-103.795-11.953 0.051-23.82 0-35.743-0.173-0.979 35.757-0.317 71.571-0.605 107.302-12.011 0-24.051 0-36.118 0.109-0.72-35.757 0-71.482-0.605-107.238-11.953 0.051-23.82 0-35.744-0.173-0.864 34.669-0.547 69.363-0.374 103.968-28.745 5.293-58.354 20.333-69.818 48.077-5.414 20.077-3.11 41.107-3.542 61.606 0.72 39.93-0.979 79.827 0.605 119.703 0 24.612 19.932 43.485 40.006 55.357 22.178 6.973 45.998 4.228 68.954 5.012 0.374 120.768 0.058 241.592 0.115 362.388-0.662 33.545 13.883 65.466 34.966 91.283l-0.058-0.084z" />
<glyph unicode="&#xe913;" glyph-name="ic-apple-cover-1" horiz-adv-x="964" d="M880.315 876.271c-14.993 14.994-34.93 23.251-56.133 23.251-21.209 0-41.141-8.258-56.133-23.251l-53.115-53.115c-0.006-0.003-0.006-0.003-0.006-0.003l-573.045-573.050c-2.109-2.114-4.015-4.415-5.692-6.879l-22.63-33.262c-1.753-2.578-3.415-5.018-4.918-7.463l-0.092 0.060-34.494-54.284c-15.478-24.365-17.968-46.472-7.398-65.711 8.921-16.239 26.21-26.329 45.12-26.329 12.875 0 25.757 4.373 40.538 13.77 0.181 0.114 0.358 0.229 0.536 0.343l93.71 61.314c2.733 1.789 5.277 3.855 7.588 6.168l520.381 520.39c0.012 0.010 0.018 0.016 0.030 0.025l52.64 52.639c0.018 0.016 0.030 0.032 0.042 0.048l53.073 53.071c30.955 30.951 30.955 81.316 0 112.267zM740.924 691.88l-45.002 44.996 52.64 52.639 45.002-44.993-52.64-52.642zM111.774 103.81c-5.765 0-5.353 6.71 2.429 18.956l13.262 20.872 19.979-19.974-20.638-13.505c-6.767-4.301-11.845-6.349-15.032-6.349zM220.512 171.472l-32.758-21.438c-0.816 1.187-1.732 2.319-2.782 3.373l-27.909 27.901c-1.094 1.090-2.274 2.042-3.508 2.879 7.728 11.36 21.958 32.28 21.958 32.28l486.781 486.772 44.99-44.993-486.771-486.774zM846.679 797.64l-19.48-19.484-44.996 44.996 19.48 19.484c6.21 6.212 14.354 9.317 22.498 9.317s16.282-3.105 22.492-9.317c12.433-12.428 12.433-32.572 0.006-44.997z" />
<glyph unicode="&#xe914;" glyph-name="ic-apple-cover" horiz-adv-x="964" d="M643.789 899.458c-7.505-0.129-15.107-0.259-22.034-3.565-28.11-11.701-56.584-22.347-85.162-32.915-2.812-1.145-5.722-2.188-8.649-3.236-11.151-3.995-22.551-8.081-29.791-18.268-2.889-12.084-2.697-24.489-2.505-36.881 0.072-4.659 0.145-9.316 0.053-13.954 0.052-213.511 0.077-427.075-0.052-640.587 0.054-1.307 0.086-2.656 0.12-4.036 0.255-10.571 0.548-22.703 10.619-28.274 12.145-7.168 25.071-12.728 37.992-18.293 7.841-3.373 15.682-6.752 23.345-10.481 9.541-3.765 18.819-8.349 28.099-12.939 16.382-8.096 32.772-16.191 50.638-19.793 1.060 8.933 2.090 17.866 2.217 26.853-0.102 263.029-0.181 526.031 0 789.060-0.102 9.118-0.747 18.263-1.391 27.381-1.163-0.032-2.331-0.052-3.5-0.072zM366.52 858.102c-11.436 0.712-22.691-7.51-23.104-19.923-2.061-26.302-1.675-52.716-1.287-79.144 0.146-9.981 0.292-19.961 0.306-29.93 6.635-0.255 13.322-0.132 20.017-0.008 14.718 0.271 29.471 0.543 43.772-3.206 13.915-10.094 21.453-27.144 19.929-44.642 0.142-87.783 0.116-175.572 0.090-263.355-0.025-87.78-0.051-175.555 0.090-263.311 1.089-13.023-4.784-24.48-10.507-35.635-1.061-2.066-2.117-4.126-3.123-6.186 17.349-0.265 34.709-0.229 52.066-0.187 10.174 0.018 20.347 0.042 30.518 0.006-7.461 11.065-14.482 23.269-13.424 37.316-0.026 111.628-0.026 223.267-0.026 334.911s0 223.295-0.026 334.952c-1.161 14.494 6.015 27.064 13.528 38.528-14.114-0.017-28.23 0.034-42.347 0.084-28.825 0.104-57.654 0.208-86.472-0.269zM738.28 858.365c-25.166 0.049-50.339 0.098-75.529-0.315-0.59-19.080-0.645-38.133 0.054-57.212 18.607-0.404 37.219-0.255 55.826-0.107 27.552 0.22 55.091 0.441 82.595-1.132 0.337-209.716 0.361-419.407 0-629.151-22.371-0.398-44.737-0.307-67.102-0.223-23.793 0.096-47.586 0.187-71.397-0.301-0.596-19.083-0.596-38.135 0.102-57.211 51.194-0.187 102.382-0.295 153.528 0 14.92-2.060 28.624 12.565 26.769 27.774 0.042 95.63 0.024 191.253 0.012 286.874-0.024 132.389-0.042 264.77 0.090 397.142 0.102 8.881-0.078 18.579-7.59 24.456-6.168 9.277-16.986 9.358-27.010 9.434-2.108 0.016-4.174 0.031-6.162 0.132-21.396-0.242-42.791-0.201-64.187-0.159zM172.428 715.132c-8.92 0.005-17.851 0.010-26.629-1.918-13.914-3.637-26.874-16.181-25.119-32.098-0.232-178.62-0.361-357.267 0.104-535.889-1.937-20.661 19.955-33.256 37.613-32.304 30.475-0.024 60.95-0.018 91.422-0.012 40.618 0.006 81.233 0.018 121.839-0.042 19.775-1.476 43.318 14.968 40.711 37.237 0 47.851-0.005 95.696-0.011 143.547-0.015 127.596-0.031 255.184 0.063 382.772 2.091 22.031-20.291 39.819-40.479 38.422-34.053 0.276-68.093 0.227-102.133 0.178-31.015-0.045-62.030-0.089-93.057 0.112-1.44-0.008-2.882-0.007-4.323-0.006zM167.775 684.177c-11.643 0-21.082-9.439-21.082-21.082s9.439-21.082 21.082-21.082h35.282c11.643 0 21.082 9.439 21.082 21.082s-9.439 21.082-21.082 21.082h-35.282z" />
<glyph unicode="&#xe915;" glyph-name="ic-apple-imac" d="M885.357 864h-746.686c-41.174 0-74.671-33.73-74.671-75.188v-526.342c0-41.459 33.497-75.187 74.671-75.187h261.413c-0.775-29.984-14.465-82.861-35.84-105.53-7.832-8.294-16.8-12.173-28.25-12.173-10.313 0-18.661-8.397-18.661-18.79 0-10.387 8.348-18.79 18.661-18.79h336.006c10.31 0 18.662 8.403 18.662 18.79 0 10.394-8.352 18.79-18.662 18.79-11.45 0-20.416 3.853-28.224 12.147-21.298 22.541-19.033 75.494-19.834 105.53h261.389c41.171 0 74.669 33.728 74.669 75.187v526.341c0 41.459-33.472 75.214-74.643 75.214zM512 224.787c-20.626 0-37.452 16.928-37.452 37.709s16.8 37.709 37.452 37.709c20.626 0 37.452-16.928 37.452-37.709s-16.8-37.709-37.452-37.709zM138.62 352l-10.62 451.128h757.306l0.026-451.128h-746.712z" />
<glyph unicode="&#xe916;" glyph-name="ic-apple-ipad" d="M848.32 880.344c-4.909 4.969-10.752 8.912-17.203 11.6s-13.37 4.066-20.358 4.056h-597.416c-14.139-0.026-27.692-5.647-37.69-15.631s-15.626-23.517-15.652-37.637v-789.465c0.026-14.118 5.654-27.654 15.652-37.638s23.551-15.603 37.69-15.629h597.416c14.125 0.026 27.667 5.651 37.651 15.635 9.984 9.99 15.59 23.52 15.59 37.632v789.465c0.032 6.996-1.344 13.928-4.032 20.387-2.694 6.46-6.656 12.316-11.648 17.225zM802.867 76.307c-0.026-0.454-0.224-0.877-0.55-1.19-0.333-0.314-0.768-0.486-1.222-0.48h-578.287c-0.436 0.019-0.849 0.205-1.159 0.512-0.309 0.314-0.493 0.723-0.517 1.158v752.345c0.024 0.436 0.208 0.849 0.517 1.157s0.723 0.493 1.159 0.517h578.088c0.454 0.001 0.89-0.173 1.222-0.484 0.326-0.312 0.525-0.737 0.55-1.19l0.198-752.345z" />
<glyph unicode="&#xe917;" glyph-name="ic-apple-iphone" d="M659.744 896h-295.489c-20.224 0-39.62-8.209-53.921-22.82s-22.335-34.429-22.335-55.092v-740.173c0-20.666 8.034-40.48 22.335-55.091s33.697-22.822 53.921-22.822h295.489c20.224 0 39.622 8.211 53.92 22.822 14.304 14.611 22.336 34.426 22.336 55.091v740.173c0 20.664-8.032 40.481-22.336 55.092-14.298 14.612-33.696 22.82-53.92 22.82zM688.339 805.516v-711.961c0-7.75-3.014-15.181-8.371-20.659-5.363-5.478-12.64-8.557-20.224-8.557h-295.489c-7.584 0-14.858 3.078-20.22 8.557s-8.376 12.909-8.376 20.659v711.961c0 7.749 3.013 15.181 8.376 20.66s12.636 8.558 20.22 8.558h34.887c1.137-7.459 4.844-14.257 10.455-19.168s12.754-7.612 20.142-7.615h164.426c7.41-0.040 14.586 2.643 20.221 7.559s9.352 11.74 10.472 19.224h34.886c7.584 0 14.861-3.078 20.224-8.558 5.357-5.479 8.371-12.911 8.371-20.66z" />
<glyph unicode="&#xe918;" glyph-name="ic-apple-keyboard" d="M102.643 370.734l0.308-62.26 61.782 0.154 0.21 61.953-62.3 0.154zM861.088 374.178l-1.133-65.717 61.574 0.211-0.365 65.408-60.077 0.098zM212.458 374.388l-1.19-65.914 602.083 0.211-0.307 65.353-600.585 0.35zM751.795 478.673l-62.246 0.252 0.25-62.258 61.997 0.168v61.837zM643.674 478.673c-20.751 0.672-62.246 0.252-62.246 0.252l0.252-62.258h61.995v62.006zM535.549 478.673l-62.244 0.252 0.252-62.258 61.992 0.168v61.837zM427.427 478.673l-62.243 0.252 0.252-62.258 61.992 0.168v61.837zM319.292 478.673l-62.244 0.252 0.252-62.258 61.264 0.168 0.728 61.837zM794.618 482.552v-65.31l126.912-0.462-0.365 65.45-126.547 0.322zM102.643 482.524v-65.296l108.374-0.448-0.364 65.45-108.010 0.294zM859.494 587.075l0.307-62.314 61.786 0.154 0.205 61.95-62.298 0.21zM751.373 587.075l0.307-62.314 61.786 0.154 0.205 61.95-62.298 0.21zM643.251 587.075l0.307-62.314 61.779 0.154 0.211 61.95-62.298 0.21zM535.129 587.075l0.308-62.314 61.782 0.154 0.21 61.95-62.3 0.21zM427.007 587.075l0.308-62.314 61.782 0.154 0.21 61.95-62.3 0.21zM318.886 587.075l0.308-62.314 61.782 0.154 0.211 61.95-62.3 0.21zM210.764 587.075l0.308-62.314 61.782 0.154 0.21 61.95-62.3 0.21zM102.643 587.075l0.308-62.314 61.782 0.154 0.21 61.95-62.3 0.21zM65.108 671.999h894.892l-0.307-407.205c1.075-23.744-22.4-42.797-45.261-40.627h-797.944c-15.19-0.922-30.226 4.787-40.11 16.538-14.518 14.112-12.25 54.374-12.25 54.374 0.714 125.607 0.98 376.92 0.98 376.92z" />
<glyph unicode="&#xe919;" glyph-name="ic-apple-macbook" d="M873.722 263.93v403.021c0.102 4.682-0.704 9.338-2.368 13.686s-4.154 8.3-7.315 11.616c-5.773 6.317-13.619 10.125-21.958 10.663l-2.33 0.18h-654.716c-4.438 0.107-8.852-0.717-12.98-2.425s-7.887-4.262-11.053-7.515c-5.916-5.727-9.661-13.491-10.547-21.868v-407h-86.453v-37.408l1.21-2.17c14.524-24.941 83.514-32.71 102.534-32.71h682.63c18.848 0 93.715 8.134 108.243 32.531l1.382 2.17v37.587l-86.278-0.358zM822.022 649.782v-385.852h-619.697v385.852h619.697z" />
<glyph unicode="&#xe91a;" glyph-name="ic-apple-mouse" d="M512 0c-52.209 0-100.329 12.544-144.446 37.632-44.118 25.082-79.048 59.046-104.851 101.939-25.802 42.867-38.703 89.677-38.703 140.442v335.977c0 50.76 12.901 97.546 38.703 140.439s60.733 76.855 104.851 101.942c44.088 25.086 92.237 37.629 144.446 37.629s100.329-12.543 144.448-37.629c44.090-25.087 79.046-59.048 104.851-101.942 25.798-42.893 38.701-89.679 38.701-140.439v-335.977c0-50.765-12.902-97.549-38.701-140.442-25.805-42.893-60.736-76.858-104.851-101.939-44.090-25.088-92.239-37.632-144.448-37.632zM512.461 727.955c-15.896 0-29.546-5.544-40.95-16.631s-17.105-24.218-17.105-39.366c0-15.175 5.702-28.278 17.105-39.365s25.053-16.631 40.95-16.631c15.896 0 29.402 5.544 40.489 16.631s16.644 24.218 16.644 39.365c0 15.148-5.558 28.278-16.644 39.366s-24.593 16.631-40.489 16.631z" />
<glyph unicode="&#xe91b;" glyph-name="ic-apple-power" d="M763.84 554.803v-70.842l79.091 0.14v70.030l-79.091 0.672zM183.158 850.465c-16.103-2.801-19.859-30.073-5.86-38.838 13.248-11.34 33.458 6.664 29.401 23.437-2.554 11.229-13.448 18.201-23.541 15.401zM131.619 863.597c8.965 18.34 25.72 33.797 45.504 32.229 104.682 0.112 209.389 0.392 314.070-0.14 21.437 1.372 37.064-18.929 45.179-38.781 3.431-12.992 1.953-26.769 2.253-40.125-0.225-170.218-0.050-340.463-0.1-510.68 1.377-32.058-27.848-60.96-56.298-57.568-47.082-0.141-94.214 0.896-141.346-0.48 4.157-64.205 35.086-125.606 81.316-164.307 39.769-33.094 89.305-51.744 139.142-50.259 108.516-6.47 214.071 93.126 223.863 213.728 0 0-31.13-0.448-47.482 8.678-16.275 9.862-28.275 29.318-27.046 50.458l0.275 128.163c-0.275 25.509 11.546 47.21 39.194 50.822l0.352 61.742c0 0-2.81 24.641 22.534 24.921l59.302-0.28c22.317 0 24.32-16.856 24.32-16.856l0.128-70.31c33.581-5.544 38.79-24.977 38.867-49.786l0.301-128.639c1.152-30.266-16.282-57.062-51.942-57.485-9.043-0.307-27.174-0.25-27.174-0.25-3.654-29.011-11.59-59.533-24.365-86.464-32.71-74.739-95.795-132.365-168.393-152.717-60.931-19.437-127.847-6.778-183.394 25.504-71.399 40.941-122.863 123.878-127.271 213.594-44.001 0.896-88.003 0.141-131.98 0.307-27.798-2.298-55.822 26.099-53.267 57.734-0.125 170.136 0.125 340.269-0.125 510.346 0.275 15.681-1.152 31.921 3.581 46.986v-0.084z" />
<glyph unicode="&#xe91c;" glyph-name="ic-apple-tv" d="M959.955 615.781c0 10.699 0 21.398 0 32.097 0 9.018-0.166 18.037-0.39 27.027v-0.001c-0.25 19.708-1.978 39.368-5.178 58.817-3.322 19.485-9.53 38.365-18.426 56.015-18.086 35.444-46.931 64.244-82.406 82.261-17.645 8.895-36.518 15.107-56 18.429-19.437 3.199-39.098 4.932-58.797 5.181-9.018 0.252-18.035 0.364-27.046 0.392-10.701 0-21.395 0-32.115 0h-335.415c-10.696 0-21.392 0-32.088 0-9.016 0-18.032-0.168-27.020-0.392v0c-19.702-0.25-39.357-1.982-58.799-5.181v0c-19.48-3.321-38.355-9.532-56-18.429v0c-35.421-18.067-64.211-46.894-82.236-82.343v0c-8.893-17.652-15.103-36.531-18.424-56.016v0c-3.199-19.448-4.93-39.109-5.18-58.817-0.252-9.018-0.364-18.037-0.392-27.055 0-10.7 0-21.398 0-32.125v-369.145c0-8.403 0.168-16.973 0.392-25.485v0c0.236-19.68 1.948-39.315 5.124-58.733v0c3.32-19.488 9.53-38.368 18.424-56.019 18.077-35.437 46.916-64.237 82.376-82.259 17.647-8.89 36.522-15.104 56-18.426v0c19.443-3.2 39.098-4.934 58.8-5.184 9.016-0.25 18.032-0.365 27.048-0.39 10.696 0 21.392 0 32.116 0h335.55c10.701 0 21.395 0 32.090 0 9.018 0 18.035 0.166 27.021 0.39 19.699 0.25 39.36 1.984 58.797 5.184 19.482 3.322 38.355 9.53 56 18.426v0c35.36 18.074 64.096 46.867 82.099 82.259 8.89 17.658 15.098 36.538 18.426 56.019 3.194 19.45 4.928 39.11 5.178 58.816 0.25 9.018 0.365 18.035 0.39 27.053 0 10.701 0 21.402 0 32.128l0.083 335.506zM340.010 605.306c12.094 14.059 29.145 22.908 47.6 24.703v0c1.321-18.779-4.703-37.337-16.8-51.759v0c-11.64-14.643-29.433-23.028-48.132-22.686-1.138 18.237 5.108 36.164 17.332 49.742v0zM432.746 347.13c-13.496-19.857-27.384-39.213-49.588-39.718-21.42-0.39-28.56 12.719-53.2 12.719s-32.536-12.322-52.78-13.109c-21.42-0.781-37.688 21.064-51.156 40.893-27.776 40.108-48.804 113.152-20.244 162.446 13.451 24.376 38.814 39.79 66.64 40.499 21.028 0.392 40.46-14.004 53.2-14.004s35.308 16.804 61.88 15.096c23.63-0.938 45.478-12.822 59.108-32.153-21.418-13.204-34.593-36.453-34.916-61.617v-0.001c0.221-28.458 17.158-54.123 43.232-65.51-5.164-16.168-12.632-31.506-22.176-45.54v0zM600.158 500.109h-43.4v-126.848c0-19.605 8.624-28.68 27.608-28.68 5.196 0.085 10.383 0.449 15.54 1.092v-35.823c-8.488-1.382-17.078-2.029-25.676-1.933-44.8 0-62.272 17.199-62.272 60.779v131.385h-33.208v35.598h33.208v53.943h44.8v-53.943h43.4l0.001-35.57zM751.891 309.658h-47.603l-80.078 226.021h47.348l56.166-181.631h1.062l56.173 181.631h46.534l-79.603-226.021z" />
<glyph unicode="&#xe91d;" glyph-name="ic-apple-watch" d="M320 879.709c0 8.997 7.293 16.291 16.291 16.291h351.421c8.992 0 16.288-7.293 16.288-16.291s-7.296-16.291-16.288-16.291h-21.184c-6.298 0-11.398-5.106-11.398-11.404v-395.869c0-67.479-96.596-122.182-164.076-122.182s-122.181 54.703-122.181 122.182v395.869c0 6.298-5.106 11.404-11.404 11.404h-21.178c-8.997 0-16.291 7.293-16.291 16.291zM511.418 676.072c17.994 0 32.582 14.587 32.582 32.582s-14.588 32.582-32.582 32.582c-17.994 0-32.582-14.587-32.582-32.582s14.588-32.582 32.582-32.582zM544 594.618c0-17.995-14.588-32.582-32.582-32.582s-32.582 14.587-32.582 32.582c0 17.994 14.588 32.581 32.582 32.581s32.582-14.587 32.582-32.581zM511.418 448c17.994 0 32.582 14.587 32.582 32.582s-14.588 32.581-32.582 32.581c-17.994 0-32.582-14.587-32.582-32.581s14.588-32.582 32.582-32.582zM370.31 399.128h-1.437v-355.148c0-6.291-5.106-11.398-11.404-11.398h-21.178c-8.997 0-16.291-7.296-16.291-16.294s7.293-16.288 16.291-16.288h351.421c8.992 0 16.288 7.29 16.288 16.288s-7.296 16.294-16.288 16.294h-21.184c-6.298 0-11.398 5.107-11.398 11.398v355.148c-0.832 0-1.542-0.6-1.702-1.416-9.722-50.053-101.855-88.183-162.373-88.183-61.087 0-111.703 38.851-120.744 89.599z" />
<glyph unicode="&#xe91e;" glyph-name="ic-apple" d="M196.52 566.388c38.499 69.848 107.803 113.29 180.984 114.232h1.923c31.767 0 61.61-12.26 88.568-22.664 19.265-8.488 36.576-15.089 49.108-15.089s28.882 6.602 48.147 15.089c28.881 11.317 64.495 25.493 101.074 25.493h14.426c30.803-1.886 108.794-13.203 159.795-90.625l0.96-5.659-2.886-4.716-0.96-0.943c-14.426-9.43-88.57-61.36-87.61-160.474 0.966-122.723 98.189-167.107 109.76-171.818 3.846-1.888 4.806-5.664 3.846-9.434v-0.941c-6.733-19.84-24.077-71.738-59.686-126.496-33.69-50.982-72.192-109.517-135.725-111.405-28.881 0-49.108 8.493-68.342 17.952-19.265 8.486-39.461 17.946-71.228 17.946-33.69 0-54.878-9.427-75.075-18.893-18.303-8.486-37.537-17.005-63.533-17.946h-2.885c-55.84 0-96.262 54.758-136.685 115.174-80.875 120.838-127.068 320.035-53.916 451.244l-0.060-0.029zM680.749 895.853c2.88 0.943 6.726-2.829 6.726-6.602 5.773-48.157-11.539-102.886-45.229-145.384-32.728-40.582-78.95-66.076-123.22-66.076l-8.655 0.943c-3.847 0-5.77 2.829-6.732 5.659-6.732 55.702 19.265 109.517 47.185 142.555 31.766 38.696 84.721 67.019 129.951 68.905h-0.026z" />
<glyph unicode="&#xe91f;" glyph-name="ic-arrow-select" d="M483.379 838.756c11.793 23.586 45.45 23.586 57.243 0l140.223-280.445c10.637-21.277-4.832-46.311-28.621-46.311h-280.447c-23.788 0-39.26 25.034-28.622 46.311l140.223 280.445zM540.621 57.242c-11.793-23.584-45.45-23.584-57.243 0l-140.223 280.447c-10.638 21.277 4.834 46.311 28.622 46.311h280.447c23.789 0 39.258-25.034 28.621-46.311l-140.223-280.447z" />
<glyph unicode="&#xe920;" glyph-name="ic-bag" d="M474.008 568.102c-81.404 22.063-244.089 140.584-244.089 238.3 0 80.301 161.021 89.597 282.065 89.597s282.063-9.296 282.063-89.597c0-94.413-157.878-210.889-243.379-238.049-11.304-3.612-26.519-4.367-37.268-4.367-15.154 0-29.907 1.54-39.424 4.116h0.031zM859.686 555.615c63.757-19.964 100.314-64.594 100.314-122.552v-223.994c0-27.046-31.11-57.651-95.142-93.491-2.675-1.478-5.696-2.24-8.749-2.24-3.45 0-6.867 0.954-9.792 2.861-5.453 3.584-7.949 9.798-6.31 15.706 21.773 77.92 21.158 170.573 20.602 252.272l-0.154 33.879c0 43.594-7.142 82.289-21.773 118.296-2.221 5.404-0.774 11.48 3.757 15.596 4.467 4.116 11.149 5.516 17.248 3.64v0.028zM166.132 556.259c6.036 1.848 12.844 0.364 17.309-3.892 4.435-4.228 5.729-10.388 3.388-15.791-15.708-35.391-23.284-74.114-23.284-118.408l-0.154-33.739c-0.554-81.9-1.171-174.547 20.605-252.467 1.633-5.907-0.862-12.128-6.314-15.712-2.926-1.901-6.345-2.854-9.795-2.854-3.049 0-6.067 0.755-8.747 2.272-64.033 35.808-95.141 66.381-95.141 93.459v223.992c0 58.63 37.237 103.485 102.132 123.14zM863.104 600.833c0.154-7.672-6.163-14.223-14.63-15.148-3.853-0.392-7.456-1.148-10.81-2.212-1.818-0.588-3.667-0.868-5.542-0.868-2.746 0-5.485 0.616-7.949 1.82-4.16 2.044-7.149 5.544-8.192 9.688l-27.443 104.913c-1.050 3.948-0.275 8.036 2.125 11.452 5.542 7.896 10.534 15.82 15.002 23.883 3.014 5.348 9.299 8.344 15.859 8.204 6.624-0.364 12.384-4.228 14.598-9.884 21.101-53.226 26.304-101.105 26.982-131.848zM208.945 594.701c-1.14-4.088-4.127-7.532-8.193-9.464-2.464-1.232-5.174-1.82-7.885-1.82-1.817 0-3.665 0.28-5.421 0.812-3.603 1.092-7.392 1.848-11.365 2.184-8.716 0.756-15.369 7.532-15.030 15.428 1.232 28.671 7.392 73.61 30.061 125.184 2.403 5.432 8.070 9.1 14.538 9.436 7.207 0.14 12.566-2.828 15.585-7.98 4.158-7.112 8.686-14.168 13.645-21.112 2.464-3.471 3.203-7.699 2.125-11.676l-28.058-100.993zM827.251 418.139l0.154-33.963c0.832-122.691 1.85-275.37-76.384-346.237-27.782-25.171-63.539-37.939-106.291-37.939h-265.492c-42.75 0-78.509 12.794-106.291 37.939-78.293 70.835-77.215 223.546-76.384 346.237l0.154 33.963c0 88.813 31.631 132.436 59.536 170.822 9.117 12.6 17.741 24.5 24.579 37.183 2.279 4.284 6.745 7.279 11.919 8.148 5.267 0.783 10.564-0.588 14.415-3.836 50.265-42.559 110.756-77.697 155.046-90.297l99.546-0.056c46.292 14.728 108.694 52.106 158.895 95.169 3.885 3.276 9.242 4.76 14.387 3.892 5.171-0.812 9.67-3.836 11.981-8.092 6.31-11.564 13.581-22.679 21.094-34.131 27.718-42.363 59.136-90.353 59.136-178.831v0.028z" />
<glyph unicode="&#xe921;" glyph-name="ic-battery-charge" d="M652 806.4v89.6h-280v-89.6h-81.312c-32.2 0-58.688-26.88-58.688-59.584v-686.784c0-33.152 26.46-60.032 58.688-60.032h442.202c32.653 0 59.11 26.88 59.11 59.584v687.232c0 32.704-26.458 59.584-58.688 59.584h-81.312zM452.612 89.6v246.4h-88.228l176.484 336v-246.4h88.256l-176.512-336z" />
<glyph unicode="&#xe922;" glyph-name="ic-battery-full" d="M792 584.73v-280.001h-616v280.001h616zM851.29 360.73h52.71v168h-56.147l-0.045 99.472c0 3.712-1.158 6.728-3.475 9.048-2.323 2.32-5.338 3.48-9.050 3.48h-709.204c-3.248 0-6.032-1.16-8.352-3.48s-3.712-5.336-4.176-9.048v-366.897c0-3.712 1.392-6.733 4.176-9.050 2.784-2.323 5.568-3.482 8.352-3.482l712.685-0.019c3.712 0 6.726 1.158 9.043 3.482 2.323 2.317 3.482 5.331 3.482 9.043v99.45zM960 522.573v-149.101c0-13.935-4.877-25.782-14.637-35.54s-27.43-14.638-41.363-14.638v-62.013c0-17.184-6.042-31.814-18.118-43.891s-20.89-18.118-38.074-18.118h-721.772c-16.719 0-31.35 6.042-43.892 18.118s-18.583 26.707-18.118 43.891v373.439c0 17.183 6.039 31.814 18.118 43.892s26.71 18.118 43.892 18.118h715.513c17.184 0 31.814-6.039 43.898-18.118 12.077-12.079 18.118-26.71 18.118-43.892v-62.011c13.933 0 32.038-4.88 41.798-14.639s14.637-21.562 14.637-35.497z" />
<glyph unicode="&#xe923;" glyph-name="ic-battery" d="M753.907 448.027c0-55.752 10.752-100.413 32.25-133.979 21.504-33.568 44.794-50.355 69.875-50.355h59.13c-17.92-26.163-37.030-44.653-57.338-55.469s-55.552-16.224-105.734-16.224h-447.985c-77.648 0-137.077 26.739-178.288 80.218s-61.816 112.073-61.816 175.782c0 62.572 20.605 120.882 61.816 174.929s100.64 81.071 178.288 81.071h447.985c50.182 0 85.427-5.408 105.734-16.225s39.418-29.306 57.338-55.468h-59.13c-25.082 0-48.371-17.068-69.875-51.205-21.498-34.137-32.25-78.513-32.25-133.129v0.054zM632.066 371.219c5.967 6.82 3.581 14.218-7.16 22.193-81.228 76.231-134.392 122.881-159.492 139.949-9.548 5.684-17.314 9.378-23.3 11.083s-11.366 0.284-16.14-4.262c-4.774-4.547-7.757-7.957-8.95-10.23s-3.58-7.398-7.161-15.373l-19.72-47.795-132.611 56.32c-15.533 6.82-25.686 6.82-30.46 0-4.774-7.956-2.387-15.923 7.16-23.898 81.228-75.094 134.989-121.175 161.282-138.244 20.307-9.093 32.847-12.22 37.621-9.377s10.154 11.66 16.14 26.455l21.51 49.5 130.821-58.026c15.533-6.82 25.686-6.252 30.46 1.705zM909.818 535.065c13.146 0 24.794-7.681 34.938-23.045s15.226-35.558 15.245-60.583c0.019-25.025-5.062-45.504-15.245-61.436s-21.824-23.898-34.938-23.898h-34.042c-13.146 0-24.493 7.965-34.035 23.898-9.549 15.932-14.323 36.41-14.323 61.436s4.774 45.22 14.323 60.583c9.542 15.364 20.89 23.045 34.035 23.045h34.042z" />
<glyph unicode="&#xe924;" glyph-name="ic-bluetooth" horiz-adv-x="964" d="M249.273 232.671l184.837 147.029v-281.456c0-21.004 16.803-42.008 42.008-42.008 8.402 0 16.804 4.198 25.205 8.403l252.052 189.036c16.8 12.601 21.004 42.008 8.403 58.814-4.204 4.198-4.204 4.198-8.403 8.397l-197.441 159.634 197.441 155.431c16.8 12.602 21.004 42.008 8.403 58.811-4.204 4.201-4.204 4.201-8.403 8.402l-252.052 189.038c-21.004 12.603-46.21 8.402-63.013-8.402-4.201-8.402-8.402-16.803-8.402-25.205v-281.456l-180.636 147.030-54.611-63.013 222.644-180.636-222.644-176.434 50.41-67.217 4.201-4.198zM518.127 770.377l142.829-105.021-142.829-109.222v214.242zM518.127 400.704l142.829-113.424-142.829-105.020v218.444z" />
<glyph unicode="&#xe925;" glyph-name="ic-boiler" d="M591.734 825.411c0.504 2.857 0.952 5.688 0.952 8.682 0 34.181-30.172 61.907-67.366 61.907-37.211 0-67.413-27.726-67.413-61.907 0-4.142 0.52-8.176 1.352-12.101-114.176-26.536-159.88-108.101-159.88-108.101h467.744c0 0-49.606 89.29-175.389 111.521zM510.783 250.931h79.018v21.984h-79.018v42.298h79.018v21.958h-79.018v47.69h79.018v21.987h-79.018v43.105h79.018v21.987h-79.018v37.91h79.018v21.958h-79.018v48.152h-26.453v-377.181h26.453v48.154zM605.928 118.97h264.268c21.094 250.114-29.075 412.812-29.075 412.812s103.046 60.703 118.88 152.961h-676.439c0 0-10.846-18.088-24.922-56.423-79.567-22.737-191.020-84.643-194.531-204.273-3.601-123.484 84.405-208.739 129.322-244.15-0.12-19.77-0.179-39.84 0.238-60.954h251.024v-26.714h-278.74v-92.23h734.599v92.256h-294.653v26.714h0.031zM148.692 421.911c1.652 56.273 42.239 90.767 81.978 111.181-14.298-60.593-27.406-140.904-33.55-243.306-26.454 33.196-50.005 78.151-48.428 132.125zM529.337 645.064c74.864 0 135.629-109.813 135.629-245.247 0-135.407-60.765-245.218-135.629-245.218-74.929 0-135.662 109.811-135.662 245.218 0 135.436 60.733 245.247 135.662 245.247z" />
<glyph unicode="&#xe926;" glyph-name="ic-book" d="M815.533 672.599c10.976-4.936 16.467-13.585 16.467-25.945v-520.689c0-8.64-3.654-16.365-10.963-23.168-7.302-6.81-15.84-10.202-25.6-10.182-28.032 0-42.048 11.117-42.048 33.35v483.609c0 7.405-3.654 12.968-10.963 16.689l-369.395 200.125c-19.506 6.17-40.229 3.085-62.17-9.256-26.813-12.36-43.883-25.945-51.21-40.754l373.050-211.233c10.979-4.936 16.47-13.585 16.47-25.945v-509.556c0-13.594-5.491-22.24-16.47-25.946-3.653-2.464-8.525-3.699-14.614-3.699-8.525 0-14.625 1.235-18.298 3.699-4.871 3.706-66.433 42.925-184.684 117.664s-182.867 115.194-193.847 121.37c-15.852 11.123-23.778 21.626-23.778 31.494l-5.48 485.462c0 17.297 4.262 33.359 12.788 48.188 17.070 28.403 48.155 52.179 93.256 71.326s80.458 21.925 106.072 8.33l411.418-214.934z" />
<glyph unicode="&#xe927;" glyph-name="ic-box" horiz-adv-x="964" d="M890.151 576.044l-70.373 43.618 70.373 44.199c4.126 2.45 7.535 5.944 9.885 10.13s3.554 8.916 3.494 13.715c0 4.856-1.295 9.625-3.747 13.816s-5.981 7.653-10.216 10.029l-271.011 162.259c-4.247 2.45-9.059 3.74-13.957 3.74-4.903 0-9.717-1.29-13.961-3.74l-108.755-58.157-108.755 58.739c-4.244 2.45-9.058 3.74-13.958 3.74s-9.714-1.29-13.958-3.74l-271.596-162.841c-4.050-2.535-7.397-6.047-9.735-10.213s-3.589-8.854-3.642-13.631c0.104-4.766 1.379-9.434 3.711-13.593s5.652-7.679 9.665-10.252l70.371-44.199-70.371-43.618c-4.172-2.544-7.604-6.14-9.951-10.426s-3.528-9.114-3.425-14c0.352-4.619 1.802-9.087 4.23-13.033s5.763-7.254 9.729-9.649l94.796-53.505v-206.462c0.014-4.927 1.308-9.77 3.755-14.053s5.962-7.855 10.203-10.373l284.391-163.418c4.268-2.367 9.080-3.566 13.958-3.494 4.871-0.024 9.671 1.175 13.958 3.494l284.973 162.256c4.241 2.518 7.758 6.090 10.204 10.373s3.741 9.126 3.753 14.053v206.462l95.377 54.668c4.126 2.505 7.56 5.996 9.993 10.159 2.44 4.163 3.801 8.866 3.97 13.686-0.096 4.689-1.373 9.279-3.71 13.345s-5.662 7.477-9.668 9.919zM509.8 406.805l65.718-40.711c4.421-2.552 9.435-3.895 14.54-3.895s10.119 1.343 14.542 3.895l134.343 76.768v-158.191l-229.142-130.855v252.988zM539.461 781.922l63.97 37.802 218.094-130.273-55.248-34.313-226.817 126.783zM766.277 587.094l54.085-33.731-229.142-130.855-54.668 33.731 229.725 130.855zM708.12 619.662l-226.236-129.692-227.978 129.692 227.978 130.273 226.236-130.273zM142.244 687.125l218.091 132.599 63.973-35.476-226.815-131.436-55.25 34.313zM427.216 454.494l-54.668-33.731-229.141 132.6 54.086 33.731 229.723-132.6zM224.828 440.536l133.181-74.442c4.356-2.736 9.396-4.188 14.54-4.188s10.183 1.452 14.54 4.188l65.718 40.711v-252.988l-227.978 130.277v156.443z" />
<glyph unicode="&#xe928;" glyph-name="ic-cable" horiz-adv-x="964" d="M776.451 543.289h-40.219v199.923c-3.192 44.181-23.6 85.325-56.808 114.525-33.214 29.201-76.553 44.109-120.645 41.499-20.75 1.005-41.48-2.333-60.873-9.802s-37.022-18.906-51.767-33.582c-14.744-14.677-26.281-32.271-33.875-51.664s-11.080-40.158-10.235-60.976v-530.359c2.029-26.142-6.055-52.067-22.576-72.391-16.52-20.329-40.209-33.491-66.15-36.768-78.671 0-90.501 68.222-90.501 109.158v415.27h15.971c5.41-0.079 10.78 0.922 15.801 2.944s9.589 5.025 13.442 8.834c3.853 3.809 6.913 8.348 9 13.354s3.163 10.377 3.162 15.803v163.142h-26.026v56.359h-109.429v-59.325h-24.252v-160.769c-0.001-5.426 1.075-10.798 3.162-15.803s5.147-9.544 9-13.354c3.853-3.809 8.422-6.811 13.442-8.834s10.391-3.023 15.801-2.944h14.196v-415.273c0-96.105 52.052-156.021 137.23-156.021 38.443 3.186 74.14 21.251 99.533 50.375s38.489 67.012 36.513 105.647v530.955c-0.967 14.637 1.205 29.312 6.37 43.035s13.204 26.177 23.574 36.522c10.37 10.344 22.831 18.339 36.542 23.445s28.354 7.205 42.943 6.155c15.732 1.631 31.631 0.081 46.755-4.558s29.172-12.272 41.303-22.45 22.106-22.69 29.335-36.8c7.228-14.11 11.559-29.53 12.74-45.349v-199.923h-39.635c-8.62 0.078-17.173-1.547-25.166-4.784-7.999-3.238-15.282-8.023-21.432-14.082-6.152-6.060-11.053-13.275-14.425-21.235s-5.146-16.507-5.224-25.155v-271.112h41.405v-131.108h177.453v131.698h41.406v271.115c-0.157 8.648-2.006 17.181-5.445 25.111-3.445 7.93-8.409 15.103-14.619 21.108-6.204 6.005-13.535 10.724-21.558 13.889s-16.595 4.713-25.221 4.556zM671.756 128.018v34.406h13.607v-34.406h-13.607zM739.78 128.018v34.406h14.197v-34.406h-14.197zM630.35 478.625c0 2.466 0.494 4.907 1.452 7.178s2.361 4.325 4.126 6.041c1.765 1.716 3.861 3.058 6.15 3.946 2.295 0.889 4.747 1.306 7.198 1.226h127.175c2.409 0 4.795-0.476 7.017-1.4 2.229-0.924 4.247-2.279 5.951-3.986s3.054-3.735 3.976-5.966c0.922-2.231 1.397-4.622 1.397-7.038v-224.842h-164.442v224.842z" />
<glyph unicode="&#xe929;" glyph-name="ic-calendar" d="M860.448 796.448c27.872 0 51.43-9.625 70.675-28.874 19.251-19.249 28.877-42.809 28.877-70.678v-597.344c0-26.541-9.626-49.773-28.877-69.683-19.245-19.91-42.803-29.869-70.675-29.869h-696.896c-26.543 0-49.771 9.958-69.683 29.869s-29.869 43.142-29.869 69.683v597.344c0 27.869 9.956 51.428 29.869 70.678s43.14 28.874 69.683 28.874h45.782v-99.552h159.29v99.552h288.707v-99.552h159.29v99.552h43.827zM860.448 99.552v398.239h-696.896v-398.239h696.896zM322.842 896v-169.235h-69.683v169.235h69.683zM770.842 896v-169.235h-69.683v169.235h69.683z" />
<glyph unicode="&#xe92a;" glyph-name="ic-call" d="M960 188.096c0-11.386-2.278-26.208-6.829-44.454-4.557-18.24-9.114-32.678-13.664-43.309-8.352-21.286-34.182-44.090-77.491-68.41-39.52-21.28-78.643-31.923-117.376-31.923-11.386 0-22.784 0.762-34.195 2.278s-23.565 4.173-36.467 7.974c-12.902 3.795-22.784 6.829-29.638 9.107-6.856 2.278-18.633 6.458-35.332 12.531s-27.337 9.869-31.915 11.386c-41.035 15.213-77.884 33.069-110.545 53.568-53.939 33.427-110.166 79.034-168.683 136.806-58.516 57.779-104.106 114.024-136.768 168.739-20.517 32.672-37.987 69.533-52.408 110.58-1.518 3.796-5.313 14.438-11.386 31.925s-10.627 29.268-13.663 35.342c-3.036 6.074-6.072 15.956-9.108 29.647s-5.693 25.851-7.97 36.481c-2.277 10.63-3.036 21.651-2.277 33.064 0 39.53 11.018 79.047 33.053 118.553 23.553 43.326 45.969 69.165 67.245 77.517 10.626 4.556 25.060 9.112 43.3 13.667s33.053 6.833 44.439 6.833c6.072 0 10.627-0.759 13.663-2.278 7.59-2.278 18.988-18.234 34.192-47.87 4.554-8.351 10.638-20.132 18.252-35.341s15.216-28.508 22.806-39.898c7.59-11.389 14.054-22.79 19.391-34.202 1.518-1.519 5.313-6.834 11.386-15.945s10.627-16.716 13.663-22.814c3.036-6.098 4.554-12.172 4.554-18.222 0-8.352-6.072-18.614-18.217-30.787s-25.439-23.953-39.885-35.341c-14.445-11.389-27.361-22.79-38.746-34.203s-17.469-20.915-18.252-28.508c0-3.796 1.139-8.732 3.416-14.806s3.795-10.25 4.554-12.528c0.759-2.278 3.795-7.593 9.108-15.945s7.97-12.148 7.97-11.389c31.903-58.511 68.751-108.671 110.545-150.478 41.795-41.81 91.558-78.668 149.292-110.578 0.759 0 4.554-2.278 11.386-6.835s12.144-7.597 15.939-9.114c3.795-1.517 7.97-3.418 12.524-5.696s9.488-3.034 14.801-2.278c7.59 0 17.090 6.080 28.497 18.227 11.411 12.147 22.81 25.069 34.195 38.758s23.162 26.989 35.328 39.898c12.173 12.906 22.81 18.98 31.917 18.221 5.312 0 11.008-1.519 17.075-4.556 6.074-3.035 13.677-7.592 22.81-13.665s14.445-9.875 15.942-11.392c10.624-6.074 22.022-12.538 34.189-19.398 12.166-6.854 25.843-14.458 41.024-22.81s26.579-14.822 34.189-19.398c29.626-14.451 45.581-25.472 47.859-33.062 1.517-3.040 2.272-7.597 2.272-13.67h0.038z" />
<glyph unicode="&#xe92b;" glyph-name="ic-cam" horiz-adv-x="964" d="M471.194 899.647l-222.117-384.958-115.66 200.487c74.082 108.654 197.533 180.931 337.777 184.472zM841.415 698.131h-444.218l115.696 200.523c138.943-10.163 259.408-87.907 328.521-200.523zM903.523 477.999c0 65.71-15.107 127.952-42.002 183.445h-231.466l222.136-385.012c32.726 59.928 51.333 128.611 51.333 201.567zM111.555 679.566l222.153-385.016h-231.466c-26.894 55.495-42 117.737-42 183.447 0 72.956 18.607 141.637 51.313 201.568zM714.74 441.311l-222.116-384.961c140.245 3.542 263.697 75.818 337.774 184.495l-115.658 200.467zM122.395 257.867h444.215l-115.696-200.523c-138.942 10.162-259.405 87.907-328.518 200.523z" />
<glyph unicode="&#xe92c;" glyph-name="ic-camera-security-2" horiz-adv-x="964" d="M843.294 576.706c-13.336 179.447-169.833 322.823-361.412 322.823-191.575 0-348.077-143.376-361.412-322.823h182.67c12.708 83.588 87.621 148.235 178.742 148.235s166.033-64.648 178.742-148.235h182.67zM352.339 749.647c0-13.644-11.061-24.706-24.706-24.706h-2.405c-13.644 0-24.706 11.061-24.706 24.706s11.062 24.706 24.706 24.706h2.405c13.645 0 24.706-11.061 24.706-24.706zM481.883 501.76c29.098 0 52.686 22.493 52.686 50.24s-23.588 50.24-52.686 50.24c-29.098 0-52.686-22.494-52.686-50.24s23.588-50.24 52.686-50.24zM843.294 527.294c-13.336-179.442-169.833-321.175-361.412-321.175-191.575 0-348.077 141.734-361.412 321.175h182.67c12.708-83.589 87.621-148.235 178.742-148.235s166.033 64.647 178.742 148.235h182.67zM481.883 690.154c-79.883 0-144.88-61.98-144.88-138.154s64.997-138.154 144.88-138.154c79.883 0 144.877 61.98 144.877 138.154s-64.994 138.154-144.877 138.154zM481.883 469.108c-47.934 0-86.928 37.184-86.928 82.892s38.994 82.893 86.928 82.893c47.934 0 86.928-37.184 86.928-82.893s-38.994-82.892-86.928-82.892zM653.354 105.647h61.705v-49.411h-466.355v49.411h61.707l37.266 72.734c42.158-13.812 87.191-21.673 134.205-21.673s92.047 7.861 134.204 21.673l37.268-72.734z" />
<glyph unicode="&#xe92d;" glyph-name="ic-camera-security" horiz-adv-x="964" d="M830.554 461.722v-105.045h-697.34v105.045c0 92.808 36.268 180.063 102.123 245.687s153.413 101.767 246.546 101.767c93.133 0 180.693-36.142 246.548-101.767 65.849-65.625 102.123-152.879 102.123-245.687zM635.946 558.686c0 84.655-69.113 153.526-154.063 153.526s-154.063-68.871-154.063-153.526c0-84.654 69.112-153.526 154.063-153.526s154.063 68.872 154.063 153.526zM481.884 453.641c58.125 0 105.412 47.122 105.412 105.044s-47.287 105.044-105.412 105.044c-58.124 0-105.411-47.122-105.411-105.044s47.287-105.044 105.411-105.044zM481.884 608.784c27.721 0 50.273-22.475 50.273-50.098s-22.551-50.098-50.273-50.098c-27.721 0-50.273 22.475-50.273 50.098s22.551 50.098 50.273 50.098zM84.561 146.589h794.646c13.432 0 24.323 10.854 24.323 24.239v137.367h-843.294v-137.367c0-13.384 10.892-24.239 24.325-24.239zM287.276 275.872h32.434c13.435 0 24.325-10.854 24.325-24.239s-10.892-24.239-24.325-24.239h-32.434c-13.435 0-24.325 10.854-24.325 24.239s10.892 24.239 24.325 24.239zM189.972 275.872h32.434c13.435 0 24.325-10.854 24.325-24.239s-10.892-24.239-24.325-24.239h-32.434c-13.435 0-24.325 10.854-24.325 24.239s10.892 24.239 24.325 24.239z" />
<glyph unicode="&#xe92e;" glyph-name="ic-camera" d="M512.014 535.983c38.23 0 70.184-12.903 95.863-38.71s38.516-56.897 38.516-93.271c0-36.374-13.136-67.465-39.412-93.269-26.276-25.811-57.932-38.714-94.968-38.714s-68.692 12.902-94.968 38.714c-26.276 25.804-39.414 56.895-39.414 93.269s13.138 67.465 39.414 93.271c26.276 25.807 57.932 38.71 94.968 38.71zM870.4 667.992c25.088 0 46.291-8.508 63.616-25.523s25.984-37.84 25.984-62.474v-396.001c0-23.456-8.659-43.994-25.984-61.594s-38.528-26.4-63.616-26.4h-716.803c-23.889 0-44.794 8.8-62.716 26.4s-26.882 38.138-26.882 61.594v396.001c0 24.634 8.961 45.459 26.882 62.474s38.826 25.523 62.716 25.523h107.528c16.728 0 28.672 8.8 35.833 26.401l26.882 80.964c5.968 16.429 17.912 24.643 35.834 24.643h304.653c17.92 0 29.869-8.214 35.834-24.643l26.88-80.964c7.162-17.601 19.104-26.401 35.834-26.401h107.526zM512.014 183.968c62.118 0 114.988 21.414 158.604 64.23 43.622 42.822 65.421 94.749 65.402 155.776s-21.818 112.951-65.402 155.773c-43.579 42.821-96.448 64.232-158.604 64.232s-115.025-21.411-158.607-64.232c-43.581-42.822-65.382-94.746-65.4-155.773s21.782-112.954 65.4-155.776c43.619-42.816 96.488-64.23 158.607-64.23zM839.942 518.372c8.352 0 15.52 3.224 21.51 9.67 5.984 6.447 8.966 13.782 8.947 22.006-0.013 8.223-3.002 15.266-8.947 21.126-5.952 5.861-13.12 8.792-21.51 8.792-21.504 0-32.256-9.972-32.256-29.918 0-9.378 3.283-17.006 9.85-22.885 6.56-5.88 14.029-8.81 22.406-8.792z" />
<glyph unicode="&#xe92f;" glyph-name="ic-cancel" d="M263.1 787.411c-12.497 12.497-32.758 12.497-45.254 0l-45.255-45.255c-12.497-12.497-12.497-32.758 0-45.254l248.902-248.902-248.902-248.902c-12.497-12.493-12.497-32.755 0-45.254l45.255-45.254c12.497-12.499 32.758-12.499 45.254 0l248.902 248.902 248.901-248.902c12.499-12.499 32.762-12.499 45.254 0l45.254 45.254c12.499 12.499 12.499 32.755 0 45.254l-248.9 248.902 248.9 248.902c12.499 12.497 12.499 32.758 0 45.254l-45.254 45.255c-12.493 12.497-32.755 12.497-45.254 0l-248.901-248.902-248.902 248.902z" />
<glyph unicode="&#xe930;" glyph-name="ic-card" d="M901.466 768c32.256 0 58.534-27.919 58.534-62.058l-0.595-515.881c0-34.144-26.278-62.061-58.541-62.061h-778.020c-32.858 0-58.844 27.302-58.844 62.061v515.881c0 34.139 26.276 62.058 59.134 62.058h778.332zM128 704c0 1.86-0.596 0 0 0v-128h768v128c0.595-0.62 0 1.86 0 0h-768zM896 192c0 0 0.595 1.242 0.595 3.098l-0.595 316.902h-768v-316.25c0-1.862-0.596-3.75 0-3.75h768zM416 378.958c16.131 0 28.681-13.039 28.681-29.16 0-16.759-12.55-29.798-28.681-29.798h-166.041c-16.131 0-29.278 13.039-29.278 29.798 0 16.14 13.148 29.16 29.278 29.16h166.041z" />
<glyph unicode="&#xe931;" horiz-adv-x="964" d="M799.166 387.53h-429.178l9.582-45.176h392.977c22.546 0 39.261-20.191 34.262-41.394l-8.078-34.268c27.365-12.812 46.237-39.858 46.237-71.162 0-44.050-37.364-79.685-83.197-79.053-43.659 0.608-79.571 34.774-80.745 76.866-0.645 22.998 8.909 43.833 24.6 58.657h-306.937c15.193-14.348 24.631-34.34 24.631-56.471 0-44.911-38.839-81.077-85.896-78.974-41.784 1.873-75.766 34.43-77.962 74.71-1.696 31.106 15.279 58.525 41.068 72.824l-102.845 484.851h-102.313c-19.406 0-35.137 15.17-35.137 33.882v22.588c0 18.713 15.731 33.882 35.137 33.882h150.108c16.692 0 31.079-11.324 34.424-27.091l13.419-63.262h575.052c22.552 0 39.261-20.19 34.268-41.391l-69.21-293.647c-3.638-15.426-17.86-26.373-34.268-26.373z" />
<glyph unicode="&#xe932;" horiz-adv-x="964" d="M561.116 684.030c-64.152 0-116.499-48.838-119.157-109.786l32.633-0.643c2.317 43.882 40.308 78.958 86.532 78.958 23.575 0 45.229-9.2 60.698-24.25l-11.83-11.204-0.090-0.098c-1.608-1.687-2.735-3.917-2.476-6.199 0.289-2.562 2.211-4.376 4.951-5.037l58.344-11.391c3.271-0.734 6.903 0.072 9.415 2.418 2.626 2.452 3.68 6.257 2.421 10.738l-13.667 51.561c-0.428 1.793-1.879 3.563-3.644 4.592-1.928 1.127-4.686 1.604-7.27-0.125l-13.746-12.234c-20.98 19.809-49.767 32.284-81.484 32.699h-1.628z" />
<glyph unicode="&#xe933;" horiz-adv-x="964" d="M563.928 451.495c64.152 0 116.496 48.838 119.159 109.786l-32.635 0.643c-2.313-43.882-40.303-78.958-86.53-78.958-23.575 0-45.232 9.2-60.695 24.25l11.92 11.301c1.604 1.687 2.731 3.917 2.474 6.199-0.288 2.562-2.211 4.376-4.955 5.037l-58.343 11.391c-3.267 0.734-6.898-0.072-9.413-2.418-2.627-2.452-3.679-6.257-2.419-10.738l13.663-51.561c0.43-1.792 1.88-3.563 3.644-4.592 1.932-1.127 4.689-1.604 7.275 0.125l13.743 12.234c20.979-19.809 49.766-32.284 81.484-32.699h1.628z" />
<glyph unicode="&#xe934;" glyph-name="ic-cart" d="M213.328 99.552c0 26.541 9.956 49.773 29.869 69.683s43.14 29.869 69.683 29.869c27.869 0 51.428-9.958 70.678-29.869s28.874-43.142 28.874-69.683c0-27.872-9.624-51.43-28.874-70.675-19.25-19.251-42.809-28.877-70.678-28.877-26.543 0-49.771 9.626-69.683 28.877-19.912 19.245-29.869 42.803-29.869 70.675zM711.091 99.552c0 26.541 9.952 49.773 29.869 69.683 19.91 19.91 43.136 29.869 69.683 29.869 27.866 0 51.424-9.958 70.675-29.869s28.877-43.142 28.877-69.683c0-27.872-9.626-51.43-28.877-70.675-19.251-19.251-42.81-28.877-70.675-28.877-26.547 0-49.773 9.626-69.683 28.877-19.917 19.245-29.869 42.803-29.869 70.675zM390.52 334.493c-23.891-6.631-35.173-14.266-33.847-22.909 1.326-8.64 15.924-12.947 43.793-12.928h559.521v-75.648c0-13.286-6.643-19.923-19.923-19.923h-651.085c-13.282 0-19.923 6.637-19.923 19.923v75.648l-9.946 45.782-97.563 451.978h-97.563v79.661c0 13.282 6.641 19.923 19.923 19.923h155.311c13.282 0 19.923-6.641 19.923-19.923v-85.628h700.872v-272.797c0-14.608-5.978-23.238-17.933-25.891l-551.56-157.269z" />
<glyph unicode="&#xe935;" glyph-name="ic-chat" d="M323.86 349.428h313.594c1.194 0 2.98 0.596 5.368 1.79h3.584v-82.431c0-23.891-8.663-44.794-25.987-62.714s-38.527-26.88-63.608-26.88h-224l-134.406-134.406v134.406h-44.812c-23.888 0-44.792 8.96-62.713 26.88s-26.881 38.822-26.881 62.714v268.781c0 25.082 8.961 46.284 26.881 63.608s38.825 25.986 62.713 25.986h170.238v-277.763l0.028 0.028zM870.406 851.191c25.082 0 46.285-8.662 63.61-25.987s25.984-38.527 25.984-63.608v-268.783c0-23.889-8.659-44.793-25.984-62.714s-38.528-26.881-63.61-26.881h-44.813v-134.406l-134.406 134.406h-313.593v358.406c0 25.082 8.961 46.284 26.881 63.608s38.825 25.986 62.714 25.986l403.217-0.028z" />
<glyph unicode="&#xe936;" glyph-name="ic-check" d="M395.743 313.434l-203.448 235.494c-16.052 18.58-42.077 18.58-58.129 0l-58.128-67.284c-16.052-18.58-16.052-48.705 0-67.284l232.226-268.803c0.094-0.115 0.189-0.224 0.285-0.333l58.128-67.29c7.216-8.352 16.447-12.947 25.881-13.792 6.307-0.563 12.703 0.55 18.65 3.341 4.949 2.323 9.586 5.811 13.6 10.451l58.128 67.29c0.081 0.090 0.162 0.186 0.243 0.282l464.782 537.992c16.051 18.58 16.051 48.705 0 67.284l-58.131 67.284c-16.051 18.58-42.074 18.58-58.125 0l-435.962-504.631z" />
<glyph unicode="&#xe937;" glyph-name="ic-circle-lg" d="M896 448c0-212.077-171.923-384-384-384s-384 171.923-384 384c0 212.077 171.923 384 384 384s384-171.923 384-384z" />
<glyph unicode="&#xe938;" glyph-name="ic-circle-md" d="M768 448c0-141.385-114.615-256-256-256s-256 114.615-256 256c0 141.385 114.615 256 256 256s256-114.615 256-256z" />
<glyph unicode="&#xe939;" glyph-name="ic-circle-sm" d="M640 448c0-70.692-57.308-128-128-128s-128 57.308-128 128c0 70.692 57.308 128 128 128s128-57.308 128-128z" />
<glyph unicode="&#xe93a;" glyph-name="ic-clock" d="M203.79 448.028c0 72.28 25.688 135.897 77.063 190.853l38.517 211.441c2.387 13.147 8.662 23.897 18.826 32.252s22.405 12.83 36.727 13.427h224c13.147 0 24.792-4.476 34.937-13.427 10.147-8.951 16.719-19.702 19.721-32.252l40.307-218.63c34.048-38.228 55.552-81.24 64.506-129.035l1.786 0.895c1.197 0.596 2.387 0.895 3.584 0.895 14.938 0 28.070-5.678 39.411-17.035s17.018-24.494 17.037-39.412c0.019-14.918-5.664-28.056-17.037-39.412s-24.512-16.737-39.411-16.14c-1.197 0-2.387 0-3.584 0l-1.786 0.895c-10.163-50.182-32.858-94.386-68.083-132.613l-40.314-215.053c-2.381-13.146-8.358-23.898-17.927-32.25-9.567-8.352-21.51-12.832-35.832-13.427h-224c-14.34 0-26.284 4.474-35.832 13.427s-15.823 19.699-18.825 32.25l-40.308 215.053c-48.988 53.76-73.482 116.212-73.482 187.299zM260.237 448.028c0-61.52 21.8-114.387 65.399-158.601 43.599-44.218 96.466-66.016 158.601-65.402 62.135 0.621 114.695 22.419 157.676 65.402 42.989 42.983 65.082 95.85 66.298 158.601 1.21 62.751-20.89 115.617-66.298 158.601-45.405 42.984-97.965 64.783-157.676 65.399s-112.578-21.185-158.601-65.399c-46.024-44.214-67.823-97.082-65.399-158.601zM288.014 448.028c0 8.354 2.685 14.927 8.056 19.72s11.944 7.478 19.72 8.056c7.776 0.578 14.648-2.107 20.615-8.056s8.355-12.522 7.161-19.72c-1.194-7.198-3.58-13.772-7.161-19.72s-10.452-8.634-20.615-8.056c-10.163 0.579-16.737 3.263-19.72 8.056s-5.669 11.366-8.056 19.72zM336.405 329.763c0 7.757 2.685 14.331 8.056 19.72s12.243 7.777 20.615 7.161c8.373-0.615 14.947-3.002 19.72-7.161s7.459-10.732 8.056-19.72c0.596-8.989-2.089-15.561-8.056-19.721s-12.541-7.142-19.72-8.954c-7.18-1.805-14.051 1.178-20.615 8.954s-9.249 14.35-8.056 19.721zM336.405 567.189c0 7.757 2.685 14.331 8.056 19.72s12.243 8.075 20.615 8.056c8.373-0.019 14.947-2.704 19.72-8.056s7.459-11.925 8.056-19.72c0.596-7.795-2.089-14.667-8.056-20.616s-12.541-8.335-19.72-7.161c-7.18 1.175-14.051 3.562-20.615 7.161s-9.249 10.471-8.056 20.616zM343.566 206.995l28.671-151.418h224l27.777 151.418c-44.196-25.683-90.788-38.522-139.777-38.522s-95.878 12.838-140.671 38.522zM347.147 689.93c44.196 25.082 90.788 37.622 139.776 37.622s95.879-12.541 140.671-37.622l-28.671 149.622h-224l-27.776-149.622zM455.566 280.474c0 7.757 2.685 14.336 8.056 19.725s12.242 8.070 20.615 8.051c8.373-0.019 14.947-2.701 19.72-8.051 4.774-5.357 7.459-11.93 8.056-19.725s-2.089-14.662-8.056-20.614c-5.967-5.946-12.541-8.634-19.72-8.058-7.18 0.582-14.051 3.264-20.615 8.058s-9.25 11.667-8.056 20.614zM455.566 448.028c0 8.354 2.984 14.927 8.951 19.72l145.147 120.056c4.774 3.58 8.951 3.282 12.532-0.895s4.177-8.354 1.79-12.531l-68.084-84.224-52.867-62.713c-4.774-4.774-11.049-7.161-18.826-7.161s-14.648 2.685-20.615 8.056c-5.967 5.37-8.625 11.916-8.028 19.692zM455.566 616.476c0 7.757 2.685 14.331 8.056 19.72s12.242 8.075 20.615 8.056c8.373-0.019 14.947-2.704 19.72-8.056s7.459-11.926 8.056-19.72c0.596-7.795-2.089-14.667-8.056-20.616s-12.541-8.634-19.72-8.056c-7.18 0.578-14.051 3.263-20.615 8.056s-9.25 11.665-8.056 20.616zM574.727 329.763c0 7.757 2.685 14.331 8.056 19.72s11.646 7.777 18.826 7.161c7.18-0.615 14.051-3.002 20.615-7.161s9.548-11.030 8.951-20.615c0-7.161-2.984-13.437-8.951-18.826s-12.839-8.371-20.615-8.954c-7.777-0.576-14.051 2.406-18.826 8.954s-7.459 13.119-8.056 19.721zM624.014 448.028c0 8.354 2.685 14.927 8.056 19.72s11.943 7.478 19.719 8.056c7.776 0.578 14.349-2.107 19.718-8.056 5.376-5.949 8.058-12.522 8.058-19.72s-2.682-13.772-8.058-19.72c-5.37-5.949-11.942-8.634-19.718-8.056s-14.348 3.263-19.719 8.056c-5.371 4.792-8.056 11.366-8.056 19.72z" />
<glyph unicode="&#xe93b;" glyph-name="ic-close" d="M165.675 852.045c-15.939 15.939-41.781 15.939-57.72 0s-15.939-41.781 0-57.72l346.325-346.326-346.324-346.323c-15.939-15.942-15.939-41.786 0-57.722 15.939-15.942 41.781-15.942 57.72 0l346.324 346.324 346.323-346.324c15.942-15.936 41.779-15.936 57.722 0 15.936 15.942 15.936 41.779 0 57.722l-346.324 346.323 346.324 346.324c15.942 15.939 15.942 41.782 0 57.721-15.936 15.939-41.779 15.939-57.722 0l-346.323-346.324-346.326 346.325z" />
<glyph unicode="&#xe93c;" glyph-name="ic-cog" d="M661.331 448c0 82.25-67.081 149.333-149.331 149.333s-149.333-67.083-149.333-149.333c0-82.25 67.083-149.331 149.333-149.331s149.331 67.081 149.331 149.331zM960 511.583v-129.5c0-8.75-7.002-19.25-16.333-21l-107.917-16.333c-6.419-18.667-13.414-36.168-22.752-53.083 19.834-28.582 40.832-54.253 62.419-80.499 3.501-4.083 5.83-9.338 5.83-14.586s-1.747-9.331-5.248-13.414c-13.997-18.669-92.749-104.416-112.582-104.416-5.248 0-10.502 2.33-15.168 5.248l-80.499 63.002c-16.915-8.749-35-16.333-53.084-22.17-4.084-35.584-7.583-73.498-16.917-108.499-2.333-9.331-10.5-16.333-21-16.333h-129.5c-10.5 0-19.833 7.584-21 17.498l-16.333 107.334c-18.083 5.837-35.583 12.832-52.5 21.587l-82.25-62.419c-4.083-3.501-9.333-5.248-14.584-5.248s-10.5 2.33-14.583 6.413c-30.916 28-71.75 64.166-96.25 98.003-2.916 4.083-4.083 8.749-4.083 13.414 0 5.248 1.75 9.331 4.667 13.414 19.833 26.835 41.416 52.506 61.25 79.917-9.917 18.669-18.083 37.92-23.917 57.753l-106.75 15.75c-9.916 1.75-16.916 11.083-16.916 21v129.5c0 8.75 7 19.25 15.75 21l108.5 16.333c5.833 18.667 13.416 36.167 22.75 53.667-19.834 28-40.834 54.25-62.417 80.5-3.5 4.083-5.833 8.749-5.833 14s2.333 9.333 5.25 13.416c14 19.25 92.75 104.417 112.583 104.417 5.251 0 10.5-2.333 15.167-5.833l80.5-62.417c16.916 8.75 35 16.333 53.083 22.167 4.084 35.583 7.583 73.5 16.917 108.5 2.333 9.333 10.5 16.333 21 16.333h129.5c10.5 0 19.833-7.583 21-17.5l16.333-107.333c18.083-5.834 35.581-12.833 52.502-21.583l82.829 62.417c3.501 3.5 8.755 5.25 14.003 5.25s10.496-2.333 14.579-5.833c30.918-28.584 71.75-64.75 96.256-99.167 2.912-3.5 4.083-8.167 4.083-12.833 0-5.251-1.754-9.334-4.672-13.417-19.834-26.833-41.414-52.5-61.248-79.917 9.92-18.666 18.086-37.917 23.917-57.167l106.752-16.333c9.914-1.75 16.915-11.083 16.915-21z" />
<glyph unicode="&#xe93d;" glyph-name="ic-cogs" d="M482.133 448.232c0 65.8-53.667 119.467-119.466 119.467s-119.467-53.667-119.467-119.467c0-65.8 53.667-119.467 119.467-119.467s119.466 53.667 119.466 119.467zM840.531 209.299c0 32.666-27.066 59.731-59.731 59.731s-59.731-27.066-59.731-59.731c0-33.133 27.066-59.731 59.731-59.731 33.133 0 59.731 27.066 59.731 59.731zM840.531 687.165c0 32.667-27.066 59.734-59.731 59.734s-59.731-27.067-59.731-59.734c0-33.133 27.066-59.733 59.731-59.733 33.133 0 59.731 27.067 59.731 59.733zM661.331 490.698v-86.333c0-6.067-4.666-13.066-10.733-14l-72.332-11.2c-3.734-12.133-8.867-23.8-14.934-35.466 13.067-18.667 27.067-35.935 42-53.67 1.867-2.797 3.267-5.6 3.267-9.331 0-3.264-0.933-6.534-3.267-8.864-9.333-12.602-61.6-69.536-75.133-69.536-3.734 0-7 1.402-9.8 3.27l-53.667 41.997c-11.667-6.067-23.334-10.733-35.933-14.464-2.333-23.802-4.667-49.472-10.733-72.333-1.866-6.534-7.466-11.2-14-11.2h-86.8c-6.533 0-13.067 5.133-14 11.661l-10.733 71.405c-12.133 3.731-23.8 8.864-35 14.464l-55.067-41.53c-2.333-2.336-6.067-3.27-9.333-3.27-3.733 0-7 1.402-9.8 3.731-12.133 11.2-67.2 61.139-67.2 74.669 0 3.27 1.4 6.067 3.267 8.87 13.533 17.728 27.533 34.997 41.066 53.197-6.533 12.6-12.133 25.2-16.333 38.267l-70.933 11.2c-6.533 0.933-11.2 7-11.2 13.533v86.333c0 6.067 4.667 13.066 10.733 14l72.333 11.2c3.733 12.133 8.867 23.8 14.933 35.466-13.067 18.667-27.067 35.933-42 53.667-1.867 2.8-3.267 6.067-3.267 9.333s0.933 6.533 3.267 9.333c9.333 12.6 61.6 69.067 75.133 69.067 3.733 0 7-1.4 9.8-3.267l53.667-42c11.667 6.067 23.333 10.733 35.933 14.933 2.333 23.333 4.667 49 10.733 71.867 1.867 6.533 7.467 11.2 14 11.2h86.8c6.534 0 13.067-5.133 14-11.667l10.733-71.4c12.133-3.733 23.8-8.867 35-14.467l55.067 41.533c2.8 2.333 6.067 3.267 9.334 3.267 3.733 0 7-1.4 9.8-3.733 12.133-11.2 67.2-61.6 67.2-74.667 0-3.267-1.4-6.067-3.267-8.867-13.533-18.2-27.533-35-40.6-53.2 6.067-12.6 11.667-25.2 15.867-38.267l70.931-10.733c6.534-1.4 11.2-7.466 11.2-14zM960 241.965v-65.331c0-7.002-60.198-13.536-69.536-14.47-3.731-8.864-8.397-16.8-13.997-24.262 4.198-9.338 23.802-56 23.802-64.403 0-1.402-0.467-2.33-1.869-3.264-5.6-3.27-55.533-33.133-57.869-33.133-6.067 0-41.062 46.662-45.734 53.664-4.666-0.467-9.331-0.934-13.997-0.934s-9.331 0.467-14.003 0.934c-4.666-7.002-39.661-53.664-45.728-53.664-2.336 0-52.269 29.862-57.869 33.133-1.402 0.934-1.869 2.33-1.869 3.264 0 7.936 19.603 55.066 23.802 64.403-5.6 7.462-10.266 15.398-13.997 24.262-9.338 0.934-69.536 7.469-69.536 14.47v65.331c0 7.002 60.198 13.536 69.536 14.464 3.731 8.403 8.397 16.8 13.997 24.269-4.198 9.331-23.802 56.467-23.802 64.401 0 0.934 0.467 2.333 1.869 3.267 5.6 2.8 55.533 32.667 57.869 32.667 6.067 0 41.062-46.2 45.728-53.2 4.672 0.467 9.338 0.933 14.003 0.933s9.331-0.467 13.997-0.933c13.069 18.2 27.072 36.4 42.938 52.267l2.797 0.933c2.336 0 52.269-29.4 57.869-32.667 1.402-0.933 1.869-2.333 1.869-3.267 0-8.4-19.603-55.069-23.802-64.401 5.6-7.469 10.266-15.866 13.997-24.269 9.338-0.928 69.536-7.462 69.536-14.464zM960 719.832v-65.333c0-7-60.198-13.533-69.536-14.467-3.731-8.867-8.397-16.8-13.997-24.267 4.198-9.333 23.802-56 23.802-64.4 0-1.4-0.467-2.333-1.869-3.267-5.6-3.267-55.533-33.133-57.869-33.133-6.067 0-41.062 46.667-45.734 53.667-4.666-0.467-9.331-0.933-13.997-0.933s-9.331 0.467-14.003 0.933c-4.666-7-39.661-53.667-45.728-53.667-2.336 0-52.269 29.867-57.869 33.133-1.402 0.933-1.869 2.333-1.869 3.267 0 7.933 19.603 55.067 23.802 64.4-5.6 7.467-10.266 15.4-13.997 24.267-9.338 0.933-69.536 7.466-69.536 14.467v65.333c0 7 60.198 13.533 69.536 14.467 3.731 8.4 8.397 16.8 13.997 24.267-4.198 9.333-23.802 56.467-23.802 64.4 0 0.933 0.467 2.333 1.869 3.267 5.6 2.8 55.533 32.667 57.869 32.667 6.067 0 41.062-46.2 45.728-53.2 4.672 0.467 9.338 0.933 14.003 0.933s9.331-0.467 13.997-0.933c13.069 18.2 27.072 36.4 42.938 52.266l2.797 0.934c2.336 0 52.269-29.4 57.869-32.667 1.402-0.933 1.869-2.333 1.869-3.267 0-8.4-19.603-55.067-23.802-64.4 5.6-7.467 10.266-15.867 13.997-24.267 9.338-0.933 69.536-7.466 69.536-14.467z" />
<glyph unicode="&#xe93e;" glyph-name="ic-combined-shape" d="M623.523 314.298c16.656 28.058 41.104 42.422 73.565 42.813 32.467 0.392 48.838 17.052 49.37 49.84 0.454 32.648 14.547 57.316 42.368 74.032 27.878 16.772 33.926 39.34 18.061 67.928-15.808 28.504-15.808 57.008 0 85.596 15.898 28.504 9.875 51.044-18.061 67.816-27.821 16.828-41.946 41.468-42.368 74.256-0.531 32.648-16.902 49.308-49.37 49.7-32.435 0.448-56.909 14.756-73.565 42.812-16.654 28.14-39.019 34.216-67.291 18.2-28.273-15.932-56.602-15.932-84.874 0-28.301 15.988-50.694 9.912-67.32-18.2-16.598-28.084-41.1-42.392-73.537-42.812-32.38-0.392-48.836-17.052-49.287-49.7-0.534-32.788-14.628-57.4-42.451-74.256-27.879-16.772-34.012-39.284-18.061-67.816 15.894-28.588 15.894-57.092 0-85.596-15.951-28.588-9.875-51.183 18.061-67.928 27.822-16.716 41.944-41.384 42.451-74.032 0.451-32.76-10.839-49.476 21.54-49.84 32.436-0.392 84.657-14.756 101.311-42.813 16.654-28.141 39.019-34.214 67.292-18.112 28.273 15.789 56.602 15.789 84.874 0 28.272-16.045 50.693-9.997 67.291 18.112zM513.866 412.663c-98.096 0-177.597 80.164-177.597 179.116 0 98.868 79.501 179.032 177.597 179.032 98.040 0 177.514-80.164 177.514-179.032 0-98.952-79.502-179.116-177.514-179.116zM299.914 330.847c78.685-1.736 53.31-66.751 117.113-68.377 0 1.734-123.105-257.318-123.105-257.318l-59.077 89.658-106.845-12.096 133.261 264.15c0 0 4.529-16.016 38.653-16.016zM761.082 336.503l134.918-253.764-105.101 13.83-36.966-96.57-150.279 260.762c0 0 31.986-5.402 57.613 22.15 22.253 18.925 2.477 43.315 99.814 53.591zM550.972 631.259l-37.162 75.88-37.19-75.88-83.186-12.264 60.118-59.135-14.179-83.608 74.437 39.424 74.437-39.424-14.179 83.608 60.118 59.135-83.214 12.264z" />
<glyph unicode="&#xe93f;" glyph-name="ic-compatible-devices" d="M225.391 136.352h289.342c17.277-60.736 60.637-110.464 117.219-136.352h-406.561c-53.702 0-97.391 43.693-97.391 97.389v701.22c0 53.702 43.69 97.391 97.391 97.391h417.393c53.702 0 97.389-43.69 97.389-97.391v-390.559c-6.426 0.586-12.896 0.993-19.475 0.993-20.275 0-39.834-3.016-58.432-8.296v378.384c0 10.752-8.73 19.478-19.482 19.478h-417.393c-10.752 0-19.478-8.726-19.478-19.478v-623.304c0-10.752 8.726-19.475 19.478-19.475zM545.391 194.784c0 96.672 78.636 175.301 175.306 175.301 96.672 0 175.302-78.629 175.302-175.301s-78.63-175.309-175.302-175.309c-96.671 0-175.306 78.637-175.306 175.309zM695.514 103.098l136.346 136.346c7.616 7.616 7.616 19.93 0 27.546s-19.93 7.616-27.546 0l-122.573-122.573-44.662 44.659c-7.616 7.616-19.928 7.616-27.544 0s-7.616-19.923 0-27.539l58.434-58.438c3.802-3.802 8.787-5.709 13.773-5.709s9.971 1.907 13.773 5.709z" />
<glyph unicode="&#xe940;" glyph-name="ic-connect" d="M810.669 371.2c-17.062 0-33.152-3.571-48.422-8.986l-138.657 215.117c23.182 27.072 37.742 62.208 37.742 101.069 0 84.71-66.974 153.6-149.331 153.6s-149.333-68.89-149.333-153.6c0-38.861 14.56-73.997 37.781-101.069l-138.656-215.117c-15.307 5.414-31.397 8.986-48.459 8.986-82.357 0-149.333-68.89-149.333-153.6s66.976-153.6 149.333-153.6c69.403 0 127.344 49.114 144.032 115.2h309.272c16.685-66.086 74.624-115.2 144.032-115.2 82.355 0 149.331 68.89 149.331 153.6s-66.976 153.6-149.331 153.6zM323.989 319.782l138.208 214.426c15.68-5.722 32.256-9.408 49.803-9.408s34.123 3.686 49.765 9.446l138.209-214.426c-15.718-18.010-27.29-39.667-33.376-63.782h-309.233c-6.085 24.077-17.658 45.773-33.376 63.744z" />
<glyph unicode="&#xe941;" glyph-name="ic-cover" horiz-adv-x="964" d="M853.558 806.372l-54.085 24.851v-400.565l98.099 259.945c16.547 45.248-2.415 97.137-44.014 115.769zM66.309 642.246l200.231-530.118c12.513-34.153 41.984-54.995 73.073-55.892 10.508 0 21.403 2.211 31.886 7.090l297.529 135.294c30.268 13.758 48.845 46.592 49.67 79.402 0.41 11.541-1.62 24.401-5.246 35.918l-201.847 530.116c-11.716 34.153-41.573 54.998-73.073 55.447-10.507 0-20.991-2.662-31.089-6.667l-297.121-135.296c-41.186-18.631-60.97-70.52-44.013-115.346v0.052zM718.312 810.799c0 48.806-36.334 88.73-80.757 88.73h-58.53l139.287-369.969v281.239z" />
<glyph unicode="&#xe942;" glyph-name="ic-cpu" d="M271.070 689.027h482.056v-482.051h-482.056v482.051zM943.462 585.589c10.336 0 16.538 7.234 16.538 17.6s-6.202 17.601-16.538 17.601h-51.731v68.269h51.731c10.336 0 16.538 7.234 16.538 17.601s-6.202 17.6-16.538 17.6h-51.731v34.135c0 38.268-31.034 69.303-69.306 69.303h-34.131v51.735c0 10.334-7.238 16.567-17.6 16.567-10.368 0-17.6-6.2-17.6-16.567v-51.735h-68.275v51.735c0 10.334-7.232 16.567-17.6 16.567-10.362 0-17.6-6.2-17.6-16.567v-51.735h-68.268v51.735c0 10.334-7.234 16.567-17.601 16.567s-17.6-6.2-17.6-16.567v-51.735h-68.27v51.735c0 10.334-7.233 16.567-17.6 16.567s-17.6-6.2-17.6-16.567v-51.735h-68.27v51.735c0 10.334-7.234 16.567-17.6 16.567s-17.601-6.2-17.601-16.567v-51.735h-68.269v51.735c0 10.334-7.234 16.567-17.601 16.567s-17.6-6.2-17.6-16.567v-51.735h-34.135c-38.268 0-69.303-31.035-69.303-69.303v-34.135h-51.735c-10.334 0-16.567-7.234-16.567-17.6s6.2-17.601 16.567-17.601h51.735v-68.269h-51.735c-10.334 0-16.567-7.234-16.567-17.601s6.2-17.6 16.567-17.6h51.735v-68.27h-51.735c-10.334 0-16.567-7.233-16.567-17.6s6.2-17.6 16.567-17.6h51.735v-68.27h-51.735c-10.334 0-16.567-7.234-16.567-17.6s6.2-17.601 16.567-17.601h51.735v-68.268h-51.735c-10.334 0-16.567-7.238-16.567-17.6 0-10.368 6.2-17.6 16.567-17.6h51.735v-68.275h-51.735c-10.334 0-16.567-7.232-16.567-17.6 0-10.362 6.2-17.6 16.567-17.6h51.735v-34.131c0-38.272 31.035-69.306 69.303-69.306h34.135v-51.731c0-10.336 7.234-16.538 17.6-16.538s17.601 6.202 17.601 16.538v51.731h68.269v-51.731c0-10.336 7.234-16.538 17.601-16.538s17.6 6.202 17.6 16.538v51.731h68.27v-51.731c0-10.336 7.233-16.538 17.6-16.538s17.6 6.202 17.6 16.538v51.731h68.27v-51.731c0-10.336 7.234-16.538 17.6-16.538s17.601 6.202 17.601 16.538v51.731h68.268v-51.731c0-10.336 7.238-16.538 17.6-16.538 10.368 0 17.6 6.202 17.6 16.538v51.731h68.275v-51.731c0-10.336 7.232-16.538 17.6-16.538 10.362 0 17.6 6.202 17.6 16.538v51.731h34.131c38.272 0 69.306 31.034 69.306 69.306v34.131h51.731c10.336 0 16.538 7.238 16.538 17.6 0 10.368-6.202 17.6-16.538 17.6h-51.731v68.275h51.731c10.336 0 16.538 7.232 16.538 17.6 0 10.362-6.202 17.6-16.538 17.6h-51.731v68.268h51.731c10.336 0 16.538 7.234 16.538 17.601s-6.202 17.6-16.538 17.6h-51.731v68.27h51.731c10.336 0 16.538 7.233 16.538 17.6s-6.202 17.6-16.538 17.6h-51.731v68.27h51.731zM788.294 189.408c0-10.336-7.238-17.606-17.6-17.606h-517.225c-10.334 0-17.6 7.238-17.6 17.606v517.219c0 10.334 7.234 17.601 17.6 17.601h517.225c10.33 0 17.6-7.234 17.6-17.601v-517.219z" />
<glyph unicode="&#xe943;" glyph-name="ic-crown" d="M512.534 832c-41.741 0-75.997-34.040-75.997-76.581s34.256-76.58 75.997-76.58c41.742 0 79.206 34.040 79.206 76.58s-37.464 76.581-79.206 76.581zM461.167 595.882c-42.812-126.595-108.115-160.634-108.115-160.634s-55.678 154.258-116.671 245.716c-24.63-55.327-50.298-91.492-102.767-106.37-1.069-46.792 54.609-221.241 58.886-308.482h643.377c2.138 84.020 58.886 272.317 58.886 306.356-40.672 17.004-91.008 54.264-102.771 108.495-67.443-91.492-116.666-245.716-116.666-245.716s-65.306 34.040-108.118 160.634c-28.908-13.816-82.415-13.816-105.976 0h-0.067zM143.206 832c-42.812 0-79.206-34.040-79.206-76.581s36.395-76.58 79.206-76.58c41.742 0 74.928 34.040 74.928 76.58s-33.186 76.581-74.928 76.581zM193.537 190.592v-126.592h642.309c0 45.728 0 86.176 0 126.592h-642.309zM882.931 832c-42.81 0-77.069-34.040-77.069-76.581s34.259-76.58 77.069-76.58c42.816 0 77.069 34.040 77.069 76.58s-34.253 76.581-77.069 76.581z" />
<glyph unicode="&#xe944;" glyph-name="ic-display" d="M96.833 768c-17.866 0-32.833-13.813-32.833-31.45v-468.909c0-17.645 14.991-31.45 32.833-31.45h376.754v-37.542l-0.039-0.134c-0.105-0.346-0.402-1.12-1.198-2.176-1.514-1.997-5.116-5.37-13.495-8.506-32.186 0.934-64.252-4.301-94.276-15.45l-0.563-0.205-0.513-0.314c-2.943-1.779-5.388-3.731-7.172-5.824-1.692-1.978-3.309-4.71-3.309-7.923v-6.63c0-5.165 3.652-8.493 6.721-10.381 3.226-1.99 7.488-3.501 12.186-4.717 9.497-2.458 22.607-4.173 37.559-5.395 30.010-2.445 68.751-2.995 103.91-2.995 35.161 0 73.664 0.55 103.551 2.95 14.895 1.19 27.96 2.867 37.477 5.254 4.717 1.184 8.979 2.637 12.23 4.538 3.034 1.773 6.797 4.896 7.117 9.914v7.462c0 3.309-1.491 6.048-3.373 8.173-1.83 2.061-4.307 3.885-7.117 5.581l-0.493 0.301-0.544 0.205c-31.78 11.974-65.749 17.818-99.92 17.21-7.119 2.515-10.561 5.331-12.241 7.309-1.375 1.619-1.812 2.95-1.992 3.763v37.293h379.074c17.862 0 32.832 13.818 32.832 31.45v467.13c0 17.627-14.957 31.469-32.813 31.469h-830.354zM146.551 706.863c0.606 0.044 1.207 0.059 1.783 0.044l727.295-0.001c9.37 0.175 16.621-6.855 16.845-15.056l0.019-362.372c0-8.196-7.13-15.353-16.538-15.353h-727.581c-9.372-0.173-16.623 6.854-16.844 15.057l0.024 360.607-0.047 0.541c-0.709 8.152 5.686 15.804 15.045 16.533z" />
<glyph unicode="&#xe945;" glyph-name="ic-doc" d="M592.441 896h-319.986c-44.305 0-80.455-40.309-80.455-89.597v-716.803c0-49.293 35.247-89.6 79.552-89.6h480.896c44.307 0 79.552 40.307 79.552 89.6v537.608l-239.559 268.792zM671.994 179.194h-319.987v89.6h319.987v-89.6zM671.994 358.417h-319.987v89.597h319.987v-89.597zM551.748 582.396v246.413l220.566-246.413h-220.566z" />
<glyph unicode="&#xe946;" glyph-name="ic-down-min" d="M540.621 249.242c-11.793-23.584-45.45-23.584-57.243 0l-140.223 280.447c-10.638 21.277 4.834 46.311 28.622 46.311h280.447c23.789 0 39.258-25.034 28.621-46.311l-140.223-280.447z" />
<glyph unicode="&#xe947;" glyph-name="ic-down-thin" d="M633.482 219.443c27.491 0 42.186-32.384 24.086-53.075l-121.485-138.842c-12.749-14.573-35.417-14.573-48.166 0l-121.482 138.842c-18.104 20.691-3.41 53.075 24.083 53.075h53.893v644.557c0 17.673 14.327 32 32 32h71.177c17.673 0 32-14.327 32-32v-644.557h53.893z" />
<glyph unicode="&#xe948;" glyph-name="ic-down" d="M536.083 219.52c-12.749-14.566-35.416-14.566-48.165 0l-377.479 431.408c-18.105 20.691-3.411 53.072 24.082 53.072h754.958c27.494 0 42.189-32.381 24.083-53.072l-377.479-431.408z" />
<glyph unicode="&#xe949;" glyph-name="ic-download" d="M930.982 309.754c10.752-6.022 18.816-15.661 24.186-28.915 5.37-13.261 6.266-25.306 2.682-36.134l-25.082-139.155c-2.387-12.051-8.954-21.99-19.712-29.811-10.758-7.827-22.694-11.738-35.821-11.738h-730.898c-13.142 0-25.083 3.91-35.821 11.738-10.738 7.821-17.309 17.76-19.714 29.811l-25.083 139.155c-5.965 28.922 3.588 50.605 28.662 65.050l141.521 97.57h87.776l-152.259-117.461h159.445c4.772 0 8.351-2.406 10.738-7.219l35.821-99.379h268.694l35.821 99.379c4.774 4.813 8.352 7.219 10.739 7.219h159.443l-152.256 117.461h87.776l143.341-97.57zM664.346 600.692c28.934 0 43.008-35.346 22.003-55.238l-152.534-144.41c-12.34-11.683-31.66-11.683-44.001 0l-152.532 144.41c-21.010 19.891-6.932 55.238 22.001 55.238h68.335v199.308c0 17.673 14.327 32 32 32h106.183c17.673 0 32-14.327 32-32v-199.308h66.545z" />
<glyph unicode="&#xe94a;" glyph-name="ic-drive" d="M960 375.997v-144.010c0-39.763-33.434-71.987-74.675-71.987h-746.651c-41.243 0-74.674 32.224-74.674 71.987v144.010c0 39.763 33.431 71.99 74.674 71.99h746.651c41.242 0 74.675-32.227 74.675-71.99zM885.325 495.997c16.435 0.028 32.704-3.14 47.878-9.258l-150.157 217.199c-13.862 20.019-37.158 32.062-62.131 32.062h-417.83c-24.975 0-48.271-12.044-62.131-32.062l-150.159-217.199c15.176 6.118 31.443 9.258 47.879 9.258h746.651zM810.682 351.991c-27.494 0-49.786-21.493-49.786-48.010 0-26.522 22.291-48.013 49.786-48.013s49.779 21.491 49.779 48.013c0 26.517-22.285 48.010-49.779 48.010zM661.331 351.991c-27.493 0-49.78-21.493-49.78-48.010 0-26.522 22.287-48.013 49.78-48.013 27.494 0 49.786 21.491 49.786 48.013 0 26.517-22.291 48.010-49.786 48.010z" />
<glyph unicode="&#xe94b;" glyph-name="ic-edit-3" d="M512.008 0.051h403.192c24.73 0 44.8 32.333 44.8 58.195 0 25.869-20.070 53.754-44.8 53.754h-403.192c-24.729 0-44.799-27.885-44.799-53.754 0-25.862 20.070-58.195 44.799-58.195zM681.933 853.173l-559.99-585.711c-5.466-5.67-9.721-13.12-11.782-21.786l-44.799-187.43c-1.747-7.027-1.882-14.899 0-22.726 6.003-25.114 30.329-40.39 54.341-34.112l179.197 46.861c7.482 1.92 14.783 6.042 20.831 12.32l559.988 585.711c27.283 28.536 40.947 66.068 40.947 103.413s-13.664 74.877-40.947 103.412c-27.283 28.536-63.213 42.874-98.912 42.874-35.706 0-71.59-14.291-98.874-42.827zM745.28 786.917c9.811 10.262 22.579 15.37 35.526 15.37 12.941 0 25.709-5.108 35.52-15.37s14.694-23.615 14.694-37.157c0-13.542-4.883-26.896-14.694-37.158l-551.206-576.525-94.75-24.787 23.699 99.104 551.211 576.524z" />
<glyph unicode="&#xe94c;" glyph-name="ic-edit" d="M510.189 255.494l57.574 63.507-76.476 83.061-57.574-63.507v-30.287h47.688v-52.774h28.788zM730.598 648.251c-5.389 5.857-10.79 5.857-16.205 0l-176.317-191.496c-5.392-5.857-5.392-11.724 0-17.601s10.794-5.876 16.205 0l176.316 191.497c5.395 5.857 5.395 11.724 0 17.6zM771.098 324.86v-103.555c0-43.642-14.086-80.774-42.266-111.398s-62.368-45.926-102.568-45.907h-417.429c-40.18 0-74.369 15.302-102.567 45.907s-42.287 67.738-42.268 111.398v453.361c0 42.989 14.090 79.796 42.268 110.42s62.368 46.262 102.567 46.913h417.429c20.987 0 40.481-4.555 58.472-13.665 5.395-2.603 8.39-6.833 8.992-12.689 1.197-6.507-0.301-11.713-4.499-15.617l-24.294-27.361c-4.787-5.206-10.189-6.507-16.205-3.904-7.789 1.952-15.285 2.928-22.493 2.928h-417.429c-22.188 0-41.079-8.47-56.676-25.409s-23.695-37.457-24.294-61.555v-453.364c0-24.096 8.098-44.614 24.294-61.555s35.087-25.734 56.676-26.381h417.429c22.186 0 41.079 8.794 56.676 26.381 15.597 17.594 23.392 38.112 23.392 61.555v68.39c0 4.55 1.504 8.454 4.499 11.712l32.378 35.169c4.794 5.206 10.797 6.508 18.003 3.905 7.213-2.603 10.502-7.809 9.888-15.618l0.026-0.061zM722.515 726.429l144.832-156.326-337.359-366.397h-144.835v156.324l337.362 366.399zM945.619 655.084l-45.888-50.817-144.838 157.303 45.894 50.817c9.587 9.761 20.979 14.641 34.176 14.641 13.203 0 24.595-4.88 34.182-14.641l76.474-83.059c9.587-10.432 14.381-22.806 14.381-37.122s-4.794-26.69-14.381-37.122z" />
<glyph unicode="&#xe94d;" glyph-name="ic-emo-happy" d="M297.968 896c-53.83 0-97.773-58.252-97.773-129.037 0-71.709 43.972-129.96 97.773-129.96s98.67 58.252 98.67 129.96c0 70.786-43.972 129.037-98.67 129.037zM725.894 896c-54.726 0-98.672-58.252-98.672-129.037 0-71.709 43.971-129.96 98.672-129.96 53.83 0 98.669 58.252 98.669 129.96 0 70.786-44.87 129.037-98.669 129.037zM912.506 269.754c-11.654 0-24.23-4.474-33.19-14.323-3.584-3.584-7.168-7.162-10.752-10.746-99.571-97.67-226.976-146.97-355.247-147.866-127.377-1.792-255.679 44.826-355.245 138.912l-13.444 13.434c-18.849 18.829-48.452 17.933-67.274-0.896-17.952-18.829-17.952-49.299 0.897-68.102 2.689-3.578 7.17-7.162 12.547-12.531l2.689-2.688c118.415-111.13 270.019-166.694 420.754-164.902 151.603 0.89 302.342 60.038 419.859 174.752 4.48 4.474 8.064 8.954 12.544 12.531 17.952 19.725 17.952 50.195-0.896 68.998-8.96 8.954-20.698 13.427-33.242 13.427z" />
<glyph unicode="&#xe94e;" glyph-name="ic-exclamation" d="M501.212 895.162c-70.094-6.416-124.767-59.024-116.356-123.181l50.468-450.379c2.804-34.645 33.645-61.589 71.496-65.442 42.057-2.566 79.908 25.664 84.113 64.159v-1.285l49.066 449.098v24.38c-7.009 64.157-70.094 110.35-138.787 102.651zM511.999 0c53.020 0 96 42.982 96 96s-42.98 96-96 96c-53.020 0-96-42.982-96-96s42.98-96 96-96z" />
<glyph unicode="&#xe94f;" glyph-name="ic-expand" d="M64 600v248c0 26.6 21.4 48 48 48h248c13.2 0 24-10.8 24-24v-80c0-13.2-10.8-24-24-24h-168v-168c0-13.2-10.8-24-24-24h-80c-13.2 0-24 10.8-24 24zM640 872v-80c0-13.2 10.797-24 24-24h168v-168c0-13.2 10.797-24 24-24h80c13.203 0 24 10.8 24 24v248c0 26.6-21.402 48-48 48h-248c-13.203 0-24-10.8-24-24zM936 320h-80c-13.203 0-24-10.797-24-24v-168h-168c-13.203 0-24-10.797-24-24v-80c0-13.203 10.797-24 24-24h248c26.598 0 48 21.402 48 48v248c0 13.203-10.797 24-24 24zM384 24v80c0 13.203-10.8 24-24 24h-168v168c0 13.203-10.8 24-24 24h-80c-13.2 0-24-10.797-24-24v-248c0-26.598 21.4-48 48-48h248c13.2 0 24 10.797 24 24z" />
<glyph unicode="&#xe950;" glyph-name="ic-export" d="M736.006 154.912v109.6l89.606 74.584v-229.643c0-12.128-4.48-22.739-13.434-31.827-8.947-9.082-19.405-13.626-31.354-13.626h-672.038c-11.955 0-22.408 4.544-31.359 13.626-8.952 9.088-13.428 19.699-13.428 31.827v558.842c0 13.343 4.177 24.255 12.532 32.735s19.107 12.719 32.255 12.719h258.067c-19.116-14.556-36.74-29.414-52.872-44.575s-27.779-26.982-34.94-35.461l-8.952-10.902h-116.486v-467.9h582.404zM662.547 530.056c-99.162 0-171.449-12.426-216.861-37.277s-93.203-79.724-143.37-164.614c0 4.845 0.298 11.517 0.895 20.015s3.282 25.477 8.056 50.934c4.774 25.458 11.348 49.402 19.722 71.83s21.512 47.594 39.416 75.493c17.904 27.9 38.81 51.843 62.719 71.83s55.865 36.966 95.869 50.934c40.004 13.969 84.511 20.943 133.521 20.925v77.139c0 26.504 30.374 41.519 51.437 25.425l213.427-163.121c16.557-12.655 16.794-37.508 0.48-50.476l-213.421-169.63c-20.966-16.668-51.917-1.731-51.91 25.057l0.019 95.534z" />
<glyph unicode="&#xe951;" glyph-name="ic-eye" d="M512 704c54.956 0 107.823-7.622 158.598-22.865 50.784-15.244 92.89-34.141 126.323-56.692 33.44-22.551 63.002-46.016 88.698-70.394 25.702-24.378 44.518-46.016 56.448-64.913 11.936-18.897 17.914-32.609 17.933-41.135s-5.958-21.933-17.933-40.221c-11.968-18.288-30.784-39.926-56.448-64.913-25.658-24.99-55.226-48.76-88.698-71.307-33.472-22.554-75.578-41.453-126.323-56.691-50.739-15.245-103.605-22.867-158.598-22.867s-107.86 7.622-158.602 22.867c-50.741 15.238-92.848 34.138-126.321 56.691-33.473 22.547-63.040 46.317-88.7 71.307-25.66 24.988-44.476 46.625-56.447 64.913s-17.949 31.696-17.93 40.221c0.019 8.525 5.996 22.237 17.93 41.135s30.751 40.535 56.447 64.913c25.697 24.378 55.263 47.843 88.7 70.394s75.543 41.449 126.321 56.692c50.779 15.244 103.646 22.865 158.602 22.865zM512 252.32c54.956 0 101.846 19.2 140.672 57.606 38.822 38.401 58.24 84.426 58.24 138.074 0 54.865-19.418 101.5-58.24 139.903-38.826 38.404-85.716 57.606-140.672 57.606s-101.846-19.202-140.671-57.606c-38.825-38.403-58.237-85.038-58.237-139.903 0-53.647 19.412-99.673 58.237-138.074 38.825-38.406 85.716-57.606 140.671-57.606zM512 448c4.774-4.872 15.823-5.481 33.147-1.827s32.261 7.004 44.811 10.049c12.55 3.044 20.019 0.304 22.406-8.221 0-26.814-9.855-49.67-29.566-68.567s-43.301-28.346-70.769-28.346c-27.469 0-50.76 9.448-69.875 28.346s-28.671 41.753-28.671 68.567c0 28.032 9.557 51.497 28.671 70.394s42.406 28.346 69.875 28.346c8.354 0 11.338-7.013 8.951-21.039s-5.967-28.346-10.742-42.961c-4.774-14.616-4.177-26.196 1.791-34.74h-0.028z" />
</font>
</defs>
</svg>
